# https://github.com/mikedh/trimesh
v -0.10492200 0.33808200 -0.01165800 0.83921569 0.76470588 0.64705882
v -0.10492200 0.36139800 -0.01165800 0.83921569 0.76470588 0.64705882
v -0.10492200 0.33808200 0.01165800 0.83921569 0.76470588 0.64705882
v -0.10492200 0.36139800 0.01165800 0.83921569 0.76470588 0.64705882
v -0.08160600 -0.22150200 -0.01165800 0.31764706 0.25098039 0.18431373
v -0.08160600 0.33808200 -0.01165800 0.69019608 0.64705882 0.69019608
v -0.08160600 -0.22150200 0.01165800 0.31764706 0.25098039 0.18431373
v -0.08160600 0.33808200 0.01165800 0.83921569 0.76470588 0.64705882
v -0.08160600 0.36139800 -0.01165800 0.75294118 0.73333333 0.77647059
v -0.08160600 0.40803000 -0.01165800 0.78431373 0.75686275 0.78823529
v -0.08160600 0.36139800 0.01165800 0.83921569 0.76470588 0.64705882
v -0.08160600 0.40803000 0.01165800 0.78431373 0.75686275 0.78823529
v -0.05829000 -0.22150200 0.01165800 0.14509804 0.09411765 0.01568627
v -0.05829000 0.26813400 0.01165800 0.51372549 0.49019608 0.56078431
v -0.05829000 -0.22150200 0.03497400 0.14509804 0.09411765 0.01568627
v -0.05829000 0.26813400 0.03497400 0.51372549 0.49019608 0.56078431
v -0.05829000 -0.22150200 -0.03497400 0.21960784 0.17647059 0.12549020
v -0.05829000 0.36139800 -0.03497400 0.69019608 0.64705882 0.69019608
v -0.05829000 -0.22150200 -0.01165800 0.21960784 0.17647059 0.12549020
v -0.05829000 0.36139800 -0.01165800 0.73333333 0.70980392 0.76862745
v -0.05829000 0.31476600 0.01165800 0.62745098 0.57647059 0.65490196
v -0.05829000 0.33808200 0.01165800 0.32941176 0.29019608 0.32941176
v -0.05829000 0.31476600 0.03497400 0.62745098 0.57647059 0.65490196
v -0.05829000 0.33808200 0.03497400 0.32941176 0.29019608 0.32941176
v -0.05829000 0.40803000 -0.01165800 0.74901961 0.72156863 0.78431373
v -0.05829000 0.45466200 -0.01165800 0.87058824 0.82745098 0.90588235
v -0.05829000 0.40803000 0.01165800 0.78431373 0.75686275 0.78823529
v -0.05829000 0.45466200 0.01165800 0.87058824 0.82745098 0.90588235
v -0.03497400 0.26813400 0.01165800 0.63137255 0.59607843 0.66666667
v -0.03497400 0.31476600 0.01165800 0.64705882 0.60784314 0.68627451
v -0.03497400 0.26813400 0.03497400 0.63137255 0.59607843 0.66666667
v -0.03497400 0.31476600 0.03497400 0.64705882 0.60784314 0.68627451
v -0.03497400 0.45466200 -0.01165800 0.87058824 0.82745098 0.90588235
v -0.03497400 0.47797800 -0.01165800 0.87058824 0.82745098 0.90588235
v -0.03497400 0.45466200 0.01165800 0.87058824 0.82745098 0.90588235
v -0.03497400 0.47797800 0.01165800 0.87058824 0.82745098 0.90588235
v -0.01165800 0.47797800 -0.01165800 0.93725490 0.91372549 0.98823529
v -0.01165800 0.50129400 -0.01165800 0.93725490 0.91372549 0.98823529
v -0.01165800 0.47797800 0.01165800 0.87058824 0.82745098 0.90588235
v -0.01165800 0.50129400 0.01165800 0.87058824 0.82745098 0.90588235
v 0.01165800 0.24481800 -0.01165800 0.70588235 0.65098039 0.73725490
v 0.01165800 0.31476600 -0.01165800 0.67843137 0.61960784 0.70588235
v 0.01165800 0.24481800 0.01165800 0.65098039 0.60784314 0.67843137
v 0.01165800 0.31476600 0.01165800 0.65098039 0.60784314 0.70980392
v 0.03497400 -0.22150200 -0.01165800 0.17647059 0.11764706 0.04705882
v 0.03497400 0.24481800 -0.01165800 0.64705882 0.63529412 0.70980392
v 0.03497400 -0.22150200 0.01165800 0.19215686 0.14509804 0.12941176
v 0.03497400 0.24481800 0.01165800 0.93333333 0.90588235 0.96470588
v -0.03497400 -0.22150200 -0.01165800 0.21960784 0.17647059 0.12549020
v -0.03497400 0.31476600 -0.01165800 0.64705882 0.61960784 0.70980392
v -0.03497400 -0.22150200 0.01165800 0.17254902 0.10980392 0.03137255
v 0.01165800 0.47797800 -0.01165800 0.87058824 0.82745098 0.90588235
v 0.01165800 0.50129400 -0.01165800 0.87058824 0.82745098 0.90588235
v 0.01165800 0.47797800 0.01165800 0.87058824 0.82745098 0.90588235
v 0.01165800 0.50129400 0.01165800 0.87058824 0.82745098 0.90588235
v 0.03497400 0.24481800 -0.03497400 0.93333333 0.90588235 0.96470588
v 0.03497400 0.31476600 -0.03497400 0.87058824 0.81176471 0.90588235
v 0.03497400 0.31476600 -0.01165800 0.58823529 0.47058824 0.58823529
v 0.03497400 0.33808200 0.01165800 0.67843137 0.61960784 0.70588235
v 0.03497400 0.24481800 0.03497400 0.93333333 0.90588235 0.96470588
v 0.03497400 0.33808200 0.03497400 0.67843137 0.61960784 0.70588235
v 0.03497400 0.43134600 -0.01165800 0.80784314 0.76862745 0.83921569
v 0.03497400 0.47797800 -0.01165800 0.87450980 0.83921569 0.90980392
v 0.03497400 0.43134600 0.01165800 0.80784314 0.76862745 0.83921569
v 0.03497400 0.47797800 0.01165800 0.87450980 0.83921569 0.90980392
v 0.05829000 -0.22150200 -0.03497400 0.12941176 0.10980392 0.08235294
v 0.05829000 0.24481800 -0.03497400 0.70980392 0.66666667 0.71372549
v 0.05829000 -0.22150200 -0.01165800 0.36078431 0.30588235 0.24313725
v 0.05829000 0.24481800 -0.01165800 0.79215686 0.78039216 0.82745098
v 0.05829000 -0.22150200 0.01165800 0.17647059 0.11764706 0.04705882
v 0.05829000 0.24481800 0.01165800 0.70980392 0.66666667 0.74117647
v 0.05829000 -0.22150200 0.03497400 0.17647059 0.11764706 0.04705882
v 0.05829000 0.24481800 0.03497400 0.70980392 0.66666667 0.74117647
v 0.05829000 0.31476600 -0.03497400 0.54901961 0.42745098 0.55294118
v 0.05829000 0.36139800 -0.03497400 0.91764706 0.89019608 0.93725490
v 0.05829000 0.31476600 -0.01165800 0.54509804 0.39215686 0.44705882
v 0.05829000 0.36139800 -0.01165800 0.80784314 0.79607843 0.83921569
v 0.05829000 0.40803000 -0.01165800 0.78431373 0.75686275 0.80784314
v 0.05829000 0.43134600 -0.01165800 0.81568627 0.77254902 0.84705882
v 0.05829000 0.40803000 0.01165800 0.78431373 0.75686275 0.80784314
v 0.05829000 0.43134600 0.01165800 0.81568627 0.77254902 0.84705882
v 0.08160600 -0.22150200 -0.01165800 0.36078431 0.30588235 0.24313725
v 0.08160600 0.33808200 -0.01165800 0.94509804 0.91372549 0.94509804
v 0.08160600 -0.22150200 0.01165800 0.36078431 0.30588235 0.24313725
v 0.08160600 0.33808200 0.01165800 0.54509804 0.39215686 0.44705882
v 0.08160600 0.36139800 -0.01165800 0.79215686 0.72549020 0.78431373
v 0.08160600 0.40803000 -0.01165800 0.92941176 0.89803922 0.96078431
v 0.08160600 0.36139800 0.01165800 0.79215686 0.72549020 0.78431373
v 0.08160600 0.40803000 0.01165800 0.92941176 0.89803922 0.96078431
v 0.10492200 0.33808200 -0.01165800 0.94509804 0.91372549 0.94509804
v 0.10492200 0.36139800 -0.01165800 0.79215686 0.72549020 0.78431373
v 0.10492200 0.33808200 0.01165800 0.54509804 0.39215686 0.44705882
v 0.10492200 0.36139800 0.01165800 0.79215686 0.72549020 0.78431373
v -0.05829000 0.24481800 -0.03497400 0.67058824 0.65882353 0.73333333
v -0.05829000 0.31476600 -0.03497400 0.62745098 0.57647059 0.65490196
v -0.05829000 0.33808200 -0.01165800 0.53333333 0.44313725 0.53333333
v -0.05829000 0.43134600 -0.01165800 0.87058824 0.82745098 0.90588235
v 0.03497400 0.45466200 -0.01165800 0.82745098 0.78823529 0.85882353
v 0.08160600 0.24481800 -0.01165800 0.83921569 0.81176471 0.87058824
v 0.08160600 0.31476600 -0.01165800 0.83921569 0.75686275 0.85098039
v 0.05829000 0.33808200 -0.01165800 0.79215686 0.72549020 0.78431373
v -0.03497400 0.24481800 0.01165800 0.62352941 0.62352941 0.67843137
v -0.03497400 0.24481800 -0.01165800 0.82745098 0.81176471 0.83137255
v -0.08160600 0.26813400 0.01165800 0.51372549 0.49019608 0.56078431
v -0.08160600 0.31476600 0.01165800 0.83921569 0.76470588 0.64705882
v -0.05829000 0.43134600 0.01165800 0.74901961 0.72156863 0.78431373
v 0.03497400 0.45466200 0.01165800 0.82745098 0.78823529 0.85882353
v 0.08160600 0.24481800 0.01165800 0.83921569 0.81176471 0.87058824
v -0.05829000 0.24481800 0.03497400 0.67058824 0.65882353 0.73333333
v 0.03497400 0.26813400 0.03497400 0.70588235 0.65098039 0.73725490
v 0.03497400 0.31476600 0.03497400 0.90980392 0.86666667 0.92156863
v -0.12823800 -0.29145000 -0.01165800 0.41568627 0.20000000 0.03137255
v -0.12823800 -0.22150200 -0.01165800 0.64705882 0.45882353 0.12941176
v -0.12823800 -0.29145000 0.01165800 0.41568627 0.20000000 0.03137255
v -0.12823800 -0.22150200 0.01165800 0.54901961 0.27058824 0.06274510
v -0.10492200 -0.29145000 -0.05829000 0.66274510 0.34901961 0.07843137
v -0.10492200 -0.26813400 -0.05829000 0.66274510 0.34901961 0.07843137
v -0.10492200 -0.29145000 -0.03497400 0.66274510 0.34901961 0.07843137
v -0.10492200 -0.26813400 -0.03497400 0.66274510 0.34901961 0.07843137
v -0.10492200 -0.29145000 0.03497400 0.66274510 0.34901961 0.07843137
v -0.10492200 -0.26813400 0.03497400 0.51764706 0.30588235 0.03137255
v -0.10492200 -0.29145000 0.05829000 0.66274510 0.34901961 0.07843137
v -0.10492200 -0.26813400 0.05829000 0.51764706 0.30588235 0.03137255
v -0.10492200 -0.22150200 -0.03497400 0.74117647 0.55686275 0.09411765
v -0.10492200 -0.29145000 -0.01165800 0.50588235 0.29411765 0.03137255
v -0.10492200 -0.22150200 -0.01165800 0.64705882 0.49411765 0.09411765
v -0.10492200 -0.29145000 0.01165800 0.51764706 0.30588235 0.03137255
v -0.10492200 -0.22150200 0.01165800 0.72156863 0.51764706 0.11372549
v -0.10492200 -0.22150200 0.03497400 0.74117647 0.55686275 0.09411765
v -0.10492200 -0.24481800 -0.05829000 0.74117647 0.55686275 0.09411765
v -0.10492200 -0.22150200 -0.05829000 0.74117647 0.55686275 0.09411765
v -0.10492200 -0.24481800 -0.03497400 0.74117647 0.55686275 0.09411765
v -0.10492200 -0.24481800 0.03497400 0.74117647 0.55686275 0.09411765
v -0.10492200 -0.24481800 0.05829000 0.74117647 0.55686275 0.09411765
v -0.10492200 -0.22150200 0.05829000 0.74117647 0.55686275 0.09411765
v -0.08160600 -0.26813400 -0.05829000 0.66666667 0.43137255 0.14901961
v -0.08160600 -0.24481800 -0.05829000 0.58823529 0.38039216 0.08627451
v -0.08160600 -0.26813400 -0.03497400 0.66666667 0.43137255 0.14901961
v -0.08160600 -0.24481800 -0.03497400 0.58823529 0.38039216 0.08627451
v -0.08160600 -0.26813400 0.03497400 0.56470588 0.34117647 0.08627451
v -0.08160600 -0.24481800 0.03497400 0.68235294 0.46666667 0.10196078
v -0.08160600 -0.26813400 0.05829000 0.56470588 0.34117647 0.08627451
v -0.08160600 -0.24481800 0.05829000 0.68235294 0.46666667 0.10196078
v -0.03497400 -0.47797800 -0.03497400 0.67843137 0.49019608 0.06274510
v -0.03497400 -0.45466200 -0.03497400 0.67843137 0.49019608 0.06274510
v -0.03497400 -0.47797800 0.03497400 0.60000000 0.35294118 0.03137255
v -0.03497400 -0.45466200 0.03497400 0.60000000 0.35294118 0.03137255
v -0.01165800 -0.50129400 -0.03497400 0.67843137 0.49019608 0.06274510
v -0.01165800 -0.47797800 -0.03497400 0.67843137 0.49019608 0.06274510
v -0.01165800 -0.50129400 0.03497400 0.60000000 0.35294118 0.03137255
v -0.01165800 -0.47797800 0.03497400 0.60000000 0.35294118 0.03137255
v -0.01165800 -0.45466200 -0.03497400 0.67843137 0.49019608 0.06274510
v -0.01165800 -0.43134600 -0.03497400 0.81960784 0.60000000 0.12941176
v -0.01165800 -0.45466200 -0.01165800 0.61176471 0.36078431 0.06274510
v -0.01165800 -0.43134600 -0.01165800 0.14117647 0.07058824 0.03529412
v -0.01165800 -0.45466200 0.01165800 0.87058824 0.70196078 0.20000000
v -0.01165800 -0.43134600 0.01165800 0.61176471 0.36078431 0.06274510
v -0.01165800 -0.45466200 0.03497400 0.60000000 0.35294118 0.03137255
v -0.01165800 -0.43134600 0.03497400 0.87058824 0.70196078 0.20000000
v -0.01165800 -0.29145000 -0.01165800 0.06274510 0.00000000 0.00000000
v -0.01165800 -0.29145000 0.01165800 0.25882353 0.15686275 0.03137255
v 0.08160600 -0.26813400 -0.03497400 0.75686275 0.53725490 0.12941176
v 0.08160600 -0.24481800 -0.03497400 0.70980392 0.57254902 0.12941176
v 0.08160600 -0.26813400 -0.01165800 0.41960784 0.25098039 0.01960784
v 0.08160600 -0.24481800 -0.01165800 0.61176471 0.46274510 0.13725490
v 0.08160600 -0.26813400 0.01165800 0.77647059 0.67058824 0.20000000
v 0.08160600 -0.24481800 0.01165800 0.70196078 0.54509804 0.25098039
v 0.08160600 -0.26813400 0.03497400 0.41960784 0.25098039 0.01960784
v 0.08160600 -0.24481800 0.03497400 0.73725490 0.62745098 0.21568627
v 0.10492200 -0.26813400 -0.01165800 0.66666667 0.52941176 0.12941176
v 0.10492200 -0.24481800 -0.01165800 0.66666667 0.55294118 0.27450980
v 0.10492200 -0.26813400 0.01165800 0.27450980 0.15294118 0.00392157
v 0.10492200 -0.24481800 0.01165800 0.77647059 0.67058824 0.20000000
v -0.10492200 -0.26813400 -0.01165800 0.41568627 0.20000000 0.03137255
v -0.10492200 -0.24481800 -0.01165800 0.64705882 0.49411765 0.09411765
v -0.10492200 -0.26813400 0.01165800 0.61176471 0.30588235 0.06274510
v -0.10492200 -0.24481800 0.01165800 0.72156863 0.51764706 0.11372549
v -0.08160600 -0.26813400 -0.01165800 0.51764706 0.31764706 0.03137255
v -0.08160600 -0.24481800 -0.01165800 0.60784314 0.42352941 0.09803922
v -0.08160600 -0.26813400 0.01165800 0.50588235 0.29411765 0.03137255
v -0.08160600 -0.24481800 0.01165800 0.64705882 0.50980392 0.12941176
v 0.01165800 -0.50129400 -0.03497400 0.54509804 0.20392157 0.00000000
v 0.01165800 -0.47797800 -0.03497400 0.54509804 0.20392157 0.00000000
v 0.01165800 -0.50129400 0.03497400 0.58039216 0.25882353 0.00000000
v 0.01165800 -0.47797800 0.03497400 0.58039216 0.25882353 0.00000000
v 0.01165800 -0.45466200 -0.03497400 0.54509804 0.20392157 0.00000000
v 0.01165800 -0.43134600 -0.03497400 0.81960784 0.60000000 0.12941176
v 0.01165800 -0.45466200 -0.01165800 0.54509804 0.20392157 0.00000000
v 0.01165800 -0.43134600 -0.01165800 0.81960784 0.60000000 0.12941176
v 0.01165800 -0.45466200 0.01165800 0.60000000 0.30980392 0.03137255
v 0.01165800 -0.43134600 0.01165800 0.61176471 0.36078431 0.06274510
v 0.01165800 -0.45466200 0.03497400 0.87058824 0.70196078 0.20000000
v 0.01165800 -0.43134600 0.03497400 0.87058824 0.70196078 0.20000000
v 0.01165800 -0.29145000 -0.01165800 0.35294118 0.24313725 0.08627451
v 0.01165800 -0.29145000 0.01165800 0.52549020 0.30196078 0.06274510
v 0.03497400 -0.47797800 -0.03497400 0.73725490 0.56862745 0.12549020
v 0.03497400 -0.45466200 -0.03497400 0.73725490 0.56862745 0.12549020
v 0.03497400 -0.47797800 0.03497400 0.73725490 0.56862745 0.12549020
v 0.03497400 -0.45466200 0.03497400 0.73725490 0.56862745 0.12549020
v 0.08160600 -0.29145000 -0.05829000 0.75686275 0.53725490 0.12941176
v 0.08160600 -0.22150200 -0.05829000 0.70980392 0.57254902 0.12941176
v 0.08160600 -0.29145000 -0.03497400 0.75686275 0.53725490 0.12941176
v 0.08160600 -0.22150200 -0.03497400 0.70980392 0.57254902 0.12941176
v 0.08160600 -0.29145000 0.03497400 0.41960784 0.25098039 0.01960784
v 0.08160600 -0.22150200 0.03497400 0.73725490 0.62745098 0.21568627
v 0.08160600 -0.29145000 0.05829000 0.41960784 0.25098039 0.01960784
v 0.08160600 -0.22150200 0.05829000 0.73725490 0.62745098 0.21568627
v 0.10492200 -0.29145000 -0.03497400 0.70980392 0.54117647 0.23921569
v 0.10492200 -0.22150200 -0.03497400 0.77647059 0.67058824 0.20000000
v 0.10492200 -0.29145000 -0.01165800 0.69019608 0.56862745 0.23529412
v 0.10492200 -0.22150200 -0.01165800 0.66666667 0.55294118 0.27450980
v 0.10492200 -0.29145000 0.01165800 0.27450980 0.15294118 0.00392157
v 0.10492200 -0.22150200 0.01165800 0.77647059 0.67058824 0.20000000
v 0.10492200 -0.29145000 0.03497400 0.70980392 0.54117647 0.23921569
v 0.10492200 -0.22150200 0.03497400 0.77647059 0.67058824 0.20000000
v 0.12823800 -0.29145000 -0.01165800 0.69019608 0.56862745 0.23529412
v 0.12823800 -0.22150200 -0.01165800 0.66666667 0.55294118 0.27450980
v 0.12823800 -0.29145000 0.01165800 0.27450980 0.15294118 0.00392157
v 0.12823800 -0.22150200 0.01165800 0.77647059 0.67058824 0.20000000
v 0.08160600 -0.26813400 -0.05829000 0.75686275 0.53725490 0.12941176
v 0.08160600 -0.24481800 -0.05829000 0.70980392 0.57254902 0.12941176
v 0.08160600 -0.26813400 0.05829000 0.41960784 0.25098039 0.01960784
v 0.08160600 -0.24481800 0.05829000 0.73725490 0.62745098 0.21568627
f 1 2 4
f 1 4 3
f 5 6 8
f 5 8 7
f 9 10 12
f 9 12 11
f 13 14 16
f 13 16 15
f 17 18 20
f 17 20 19
f 21 22 24
f 21 24 23
f 25 26 28
f 25 28 27
f 29 30 32
f 29 32 31
f 33 34 36
f 33 36 35
f 37 38 40
f 37 40 39
f 41 42 44
f 41 44 43
f 45 46 48
f 45 48 47
f 30 50 49
f 51 30 49
f 55 53 52
f 54 55 52
f 58 57 56
f 46 58 56
f 61 59 48
f 60 61 48
f 65 63 62
f 64 65 62
f 69 67 66
f 68 69 66
f 73 71 70
f 72 73 70
f 77 75 74
f 76 77 74
f 81 79 78
f 80 81 78
f 85 83 82
f 84 85 82
f 89 87 86
f 88 89 86
f 93 91 90
f 92 93 90
f 51 49 5
f 7 51 5
f 68 66 17
f 19 68 17
f 72 70 13
f 15 72 13
f 84 82 45
f 47 84 45
f 48 46 41
f 43 48 41
f 32 30 21
f 23 32 21
f 44 42 50
f 30 44 50
f 76 74 57
f 58 76 57
f 8 6 1
f 3 8 1
f 92 90 83
f 85 92 83
f 56 67 69
f 56 69 46
f 48 71 73
f 48 73 60
f 14 29 31
f 14 31 16
f 22 59 61
f 22 61 24
f 2 9 11
f 2 11 4
f 18 75 77
f 18 77 20
f 86 91 93
f 86 93 88
f 10 25 27
f 10 27 12
f 78 87 89
f 78 89 80
f 62 79 81
f 62 81 64
f 26 33 35
f 26 35 28
f 34 37 39
f 34 39 36
f 52 63 65
f 52 65 54
f 38 53 55
f 38 55 40
f 94 56 57
f 94 57 95
f 17 66 67
f 17 67 94
f 95 74 75
f 95 75 18
f 1 96 20
f 1 20 2
f 5 19 96
f 5 96 6
f 9 86 87
f 9 87 10
f 97 62 98
f 97 98 26
f 25 78 79
f 25 79 97
f 33 98 63
f 33 63 34
f 37 52 53
f 37 53 38
f 46 99 100
f 46 100 58
f 68 82 99
f 68 99 69
f 76 100 83
f 76 83 101
f 101 90 91
f 101 91 77
f 102 43 44
f 102 44 30
f 51 47 48
f 51 48 102
f 42 41 103
f 50 42 103
f 46 45 49
f 103 46 49
f 93 92 3
f 4 93 3
f 14 13 7
f 104 14 7
f 22 21 105
f 8 22 105
f 30 29 104
f 105 30 104
f 89 88 11
f 12 89 11
f 107 64 106
f 28 107 106
f 81 80 27
f 106 81 27
f 65 107 35
f 36 65 35
f 55 54 39
f 40 55 39
f 85 108 48
f 59 85 48
f 108 84 70
f 71 108 70
f 110 60 109
f 16 110 109
f 61 111 23
f 24 61 23
f 73 72 15
f 109 73 15
f 111 110 31
f 32 111 31
f 112 113 115
f 112 115 114
f 116 117 119
f 116 119 118
f 120 121 123
f 120 123 122
f 118 124 126
f 118 126 125
f 127 128 129
f 127 129 120
f 130 131 124
f 130 124 132
f 133 129 135
f 133 135 134
f 136 137 139
f 136 139 138
f 140 141 143
f 140 143 142
f 144 145 147
f 144 147 146
f 148 149 151
f 148 151 150
f 152 153 155
f 152 155 154
f 156 157 159
f 156 159 158
f 154 160 161
f 154 161 156
f 162 163 165
f 162 165 164
f 166 167 169
f 166 169 168
f 170 171 173
f 170 173 172
f 177 175 174
f 176 177 174
f 179 139 138
f 178 179 138
f 141 181 180
f 140 141 180
f 185 183 182
f 184 185 182
f 189 187 186
f 188 189 186
f 193 191 190
f 192 193 190
f 195 194 188
f 190 195 188
f 199 197 196
f 198 199 196
f 203 201 200
f 202 203 200
f 207 205 204
f 206 207 204
f 211 209 208
f 210 211 208
f 215 213 212
f 214 215 212
f 219 217 216
f 218 219 216
f 184 182 148
f 150 184 148
f 151 149 144
f 146 151 144
f 198 196 183
f 185 198 183
f 161 160 112
f 114 161 112
f 202 200 116
f 118 202 116
f 206 204 120
f 122 206 120
f 210 208 118
f 125 210 118
f 214 212 127
f 120 214 127
f 218 216 194
f 195 218 194
f 139 137 130
f 132 139 130
f 143 141 133
f 134 143 133
f 173 171 175
f 177 173 175
f 165 163 139
f 179 165 139
f 169 167 181
f 141 169 181
f 145 152 158
f 145 158 147
f 186 197 199
f 186 199 192
f 153 187 189
f 153 189 155
f 157 191 193
f 157 193 159
f 117 136 138
f 117 138 119
f 121 140 142
f 121 142 123
f 174 170 172
f 174 172 176
f 138 162 164
f 138 164 178
f 180 166 168
f 180 168 140
f 113 217 219
f 113 219 115
f 131 201 203
f 131 203 124
f 129 205 207
f 129 207 135
f 124 209 211
f 124 211 126
f 128 213 215
f 128 215 129
f 116 200 220
f 116 220 117
f 130 221 201
f 130 201 131
f 136 220 221
f 136 221 137
f 119 138 139
f 119 139 132
f 144 196 197
f 144 197 145
f 148 182 183
f 148 183 149
f 152 186 187
f 152 187 153
f 202 208 209
f 202 209 203
f 112 125 126
f 112 126 113
f 155 189 194
f 155 194 160
f 210 216 217
f 210 217 211
f 176 180 181
f 176 181 177
f 166 172 173
f 166 173 167
f 140 168 169
f 140 169 141
f 163 162 138
f 139 163 138
f 179 178 174
f 175 179 174
f 171 170 164
f 165 171 164
f 128 127 114
f 115 128 114
f 195 191 157
f 161 195 157
f 219 218 212
f 213 219 212
f 141 140 121
f 133 141 121
f 199 198 146
f 147 199 146
f 185 184 150
f 151 185 150
f 193 192 158
f 159 193 158
f 215 214 204
f 205 215 204
f 222 206 122
f 123 222 122
f 207 223 134
f 135 207 134
f 223 222 142
f 143 223 142

