v -0.0490921 -0.221519 -0.00300298
v -0.0832281 -0.221539 -0.0122553
v -0.0721475 -0.22152 -0.00027447
v -0.0570676 -0.186682 -0.0107184
v -0.0824403 -0.186658 -0.0128851
v -0.0841224 -0.221503 0.0144349
v -0.0574131 -0.151724 -0.0103481
v -0.0822881 -0.151667 -0.0134821
v -0.0828971 -0.186588 0.0125751
v -0.0555194 -0.221528 -0.0370437
v -0.0569092 -0.186709 -0.0355567
v -0.0577974 -0.186488 0.00972812
v -0.0572091 -0.15178 -0.0355329
v -0.0573331 -0.116963 -0.00994814
v -0.0832687 -0.116895 -0.0126272
v -0.082664 -0.151579 0.0130256
v -0.00743145 -0.221631 -0.0107433
v -0.012786 -0.221507 -0.0358754
v -0.0165122 -0.186687 -0.034974
v -0.0576693 -0.151477 0.0102356
v -0.0567726 -0.186336 0.0355782
v -0.0543404 -0.221461 0.0368472
v -0.0180087 -0.151867 -0.034974
v -0.0574612 -0.117029 -0.0355881
v -0.0574915 -0.0824073 -0.0101432
v -0.0822769 -0.0823645 -0.0135042
v -0.0829054 -0.116814 0.0124845
v -0.0354839 -0.187357 -0.0124093
v -0.00238287 -0.187426 -0.011658
v 0.0299579 -0.221663 -0.0112429
v 0.0242369 -0.221499 -0.0352648
v 0.0215546 -0.186677 -0.034974
v -0.0578265 -0.116744 0.00973025
v -0.0569664 -0.151338 0.0355142
v -0.0162336 -0.186452 0.034974
v -0.0122865 -0.221449 0.0360057
v -0.0471234 -0.221523 0.0134869
v 0.0202931 -0.151904 -0.034974
v -0.0187143 -0.117153 -0.034974
v -0.0578071 -0.0824454 -0.0363547
v -0.0573306 -0.0479373 -0.0104235
v -0.0824254 -0.0479108 -0.013525
v -0.083592 -0.082307 0.0124826
v -0.0379378 -0.221589 0.00661642
v -0.0354179 -0.187345 0.0127118
v -0.0351087 -0.153056 -0.0126315
v -0.000733083 -0.153113 -0.011658
v 0.0341951 -0.187609 -0.0128405
v 0.0577663 -0.221493 -0.0115292
v 0.0586824 -0.221488 -0.035636
v 0.0580918 -0.186649 -0.0359081
v -0.0571053 -0.0822576 0.0106599
v -0.0574522 -0.116656 0.0358231
v -0.017791 -0.15156 0.034974
v 0.0217867 -0.186536 0.034974
v 0.0246144 -0.221475 0.0357248
v -0.00704247 -0.221601 0.0106936
v 0.0577663 -0.151905 -0.035563
v 0.0197014 -0.117212 -0.034974
v -0.0191413 -0.082549 -0.034974
v -0.0577472 -0.0479583 -0.0356857
v -0.0570461 -0.0135074 -0.0103819
v -0.0828513 -0.0134874 -0.0125396
v -0.0828699 -0.0478704 0.0126493
v -0.00231003 -0.187403 0.011658
v -0.0351633 -0.153055 0.0124514
v -0.0349978 -0.118713 -0.012372
v -0.000242094 -0.118752 -0.011658
v 0.0347858 -0.153215 -0.0126248
v 0.0292837 -0.221621 0.0113315
v 0.0340754 -0.187578 0.0125109
v 0.0575457 -0.221484 0.0114431
v 0.0563466 -0.186621 -0.0112264
v -0.0577619 -0.0478446 0.00970506
v -0.0574254 -0.0822098 0.035287
v -0.0185735 -0.116866 0.034974
v 0.0204288 -0.151706 0.034974
v 0.058143 -0.186574 0.0358804
v 0.0588909 -0.22149 0.0367886
v 0.057199 -0.151897 -0.0104218
v 0.0578289 -0.117233 -0.0359193
v 0.0193032 -0.0826056 -0.034974
v -0.0192879 -0.0480331 -0.034974
v -0.0576502 -0.0135281 -0.035781
v -0.0569876 0.0208779 -0.0107095
v -0.0824301 0.0208912 -0.01278
v -0.083763 -0.0134778 0.0122062
v -0.00076439 -0.153102 0.011658
v -0.0350151 -0.11871 0.0124756
v -0.0349642 -0.0843977 -0.0127659
v -6.53756e-05 -0.0844187 -0.011658
v 0.0349083 -0.118762 -0.0123408
v 0.0346874 -0.153206 0.0122977
v 0.0855903 -0.221482 0.0137492
v 0.0850933 -0.221485 -0.0140675
v 0.0826193 -0.186585 -0.012911
v -0.0565669 -0.0134565 0.0109052
v -0.0577497 -0.0478199 0.0356135
v -0.0189529 -0.0823322 0.034974
v 0.0197941 -0.117024 0.034974
v 0.0577232 -0.151828 0.0355425
v 0.0570155 -0.186566 0.01078
v 0.0823114 -0.151877 -0.0132966
v 0.0569711 -0.117237 -0.0108145
v 0.0574887 -0.082621 -0.0355125
v 0.0191701 -0.0480745 -0.034974
v -0.0193093 -0.0135782 -0.034974
v -0.0576842 0.0208666 -0.0358198
v -0.0571485 0.0552457 -0.01048
v -0.0822998 0.0552534 -0.0131113
v -0.0828458 0.0209018 0.0127623
v -0.000261687 -0.118742 0.011658
v -0.0349723 -0.0843805 0.0132076
v -0.0349543 -0.0501081 -0.0127275
v -1.43397e-05 -0.0501296 -0.011658
v 0.0349474 -0.0844 -0.0125494
v 0.0349009 -0.118756 0.0126708
v 0.0822281 -0.186577 0.0135412
v -0.0574242 0.0209101 0.0104407
v -0.0578021 -0.0134421 0.0359011
v -0.0192241 -0.0478805 0.034974
v 0.0194698 -0.0824509 0.034974
v 0.0577464 -0.117175 0.0358425
v 0.0571707 -0.151847 0.0103756
v 0.0822193 -0.151861 0.0129589
v 0.0824289 -0.117228 -0.0126912
v 0.0574129 -0.0826173 -0.00995379
v 0.0576 -0.0480798 -0.0358625
v 0.0191446 -0.0136061 -0.034974
v -0.0192794 0.0208392 -0.034974
v -0.0575661 0.0552369 -0.0356397
v -0.0571117 0.0896131 -0.0107515
v -0.0826912 0.0896239 -0.012906
v -0.0822965 0.0552675 0.0136156
v -8.23158e-05 -0.0844061 0.011658
v -0.0349565 -0.050096 0.0123665
v -0.0349542 -0.0158688 -0.0128214
v -4.91332e-07 -0.0158933 -0.011658
v 0.0349573 -0.0501098 -0.012442
v 0.0349411 -0.0843906 0.0128428
v -0.0574153 0.0552699 0.0100571
v -0.0577569 0.0209208 0.0356856
v -0.0193298 -0.0134676 0.034974
v 0.0192579 -0.0479486 0.034974
v 0.0577484 -0.0825609 0.0359666
v 0.0569894 -0.117199 0.0107689
v 0.0819938 -0.11722 0.0137124
v 0.0835404 -0.0826134 -0.0123159
v 0.0561694 -0.0480734 -0.0113368
v 0.0576296 -0.0136093 -0.0359323
v 0.0191674 0.0208247 -0.034974
v -0.0191865 0.0552458 -0.034974
v -0.0577444 0.0896149 -0.0359671
v -0.0571699 0.124004 -0.0106165
v -0.0830173 0.124016 -0.0126986
v -0.0831643 0.0896415 0.0124669
v -2.2547e-05 -0.0501191 0.011658
v -0.0349541 -0.0158691 0.012469
v -0.0349481 0.0183148 -0.0126685
v 3.84421e-06 0.0182859 -0.011658
v 0.0349597 -0.0158768 -0.0124946
v 0.0349487 -0.0500945 0.0125444
v -0.0570476 0.0896475 0.0102899
v -0.057713 0.0552879 0.0358012
v -0.0193114 0.0209244 0.034974
v 0.0191263 -0.0134984 0.034974
v 0.0577326 -0.0480059 0.0357013
v 0.0564237 -0.0825806 0.0110121
v 0.0831056 -0.0825972 0.012466
v 0.0825084 -0.0480615 -0.0128806
v 0.0562736 -0.0136007 -0.0111065
v 0.0576616 0.0208161 -0.0360468
v 0.019223 0.0552576 -0.034974
v -0.0190447 0.0896774 -0.034974
v -0.0573912 0.124028 -0.0354787
v -0.0569071 0.158441 -0.010356
v -0.0825335 0.158453 -0.012847
v -0.0823025 0.124039 0.0136807
v -4.55051e-06 -0.0158941 0.011658
v -0.0349583 0.0183012 0.0124676
v -0.0349489 0.0524604 -0.0125066
v 5.47215e-06 0.0523989 -0.011658
v 0.0349558 0.0182955 -0.0123508
v 0.0349567 -0.0158768 0.0127997
v -0.0562284 0.124075 0.0111519
v -0.0575668 0.089691 0.035801
v -0.0191717 0.0553239 0.034974
v 0.0190986 0.0209195 0.034974
v 0.0575678 -0.0135186 0.0356075
v 0.0573221 -0.0480253 0.0104315
v 0.0828251 -0.0480438 0.0126248
v 0.0836737 -0.0135785 -0.0124169
v 0.0572942 0.0208386 -0.0104682
v 0.0574526 0.0552522 -0.0351483
v 0.0194469 0.0897395 -0.034974
v -0.0187307 0.124165 -0.034974
v -0.0575912 0.158472 -0.0357836
v -0.0572894 0.192908 -0.0105019
v -0.0828104 0.192957 -0.0126853
v -0.0828824 0.15849 0.0128561
v -1.02934e-05 0.0182723 0.011658
v -0.0349645 0.0524468 0.0125832
v -0.0349506 0.0865047 -0.0126982
v 3.27167e-06 0.0863751 -0.011658
v 0.034956 0.0524308 -0.0125571
v 0.0349484 0.0182845 0.0126633
v -0.0571328 0.158546 0.0105316
v -0.0575732 0.124161 0.0358885
v -0.0190035 0.089769 0.034974
v 0.0192665 0.0553402 0.034974
v 0.057285 0.0209136 0.0353695
v 0.0559297 -0.0135338 0.0109459
v 0.0826292 -0.0135542 0.0128762
v 0.0835532 0.0208607 -0.0123823
v 0.056532 0.0552783 -0.0106534
v 0.0577895 0.0897467 -0.035803
v 0.0197644 0.12433 -0.034974
v -0.0183257 0.158706 -0.034974
v -0.0574862 0.192909 -0.0359389
v -0.0568419 0.227399 -0.0107432
v -0.0828543 0.22755 -0.0123582
v -0.0830491 0.193038 0.0127495
v -2.54231e-05 0.0523764 0.011658
v -0.0349729 0.08648 0.0125462
v -0.0349559 0.120351 -0.0132479
v 9.96904e-06 0.120097 -0.011658
v 0.0349552 0.0864244 -0.0127018
v 0.0349361 0.0524114 0.012181
v -0.0572348 0.193123 0.0104521
v -0.0575566 0.158668 0.0360892
v -0.0188136 0.124306 0.034974
v 0.0194256 0.08983 0.034974
v 0.0576264 0.055325 0.035725
v 0.0574937 0.0209048 0.0100112
v 0.0823789 0.0208878 0.0135799
v 0.0826728 0.0552997 -0.0128142
v 0.0571116 0.0897843 -0.0100365
v 0.0578686 0.124405 -0.0360687
v 0.020341 0.159072 -0.034974
v -0.017352 0.193195 -0.034974
v -0.0565376 0.22727 -0.0351663
v -0.0570744 0.261879 -0.0109557
v -0.0830915 0.262219 -0.0126748
v -0.0828829 0.227804 0.0128628
v -3.54994e-05 0.0863399 0.011658
v -0.0349868 0.12031 0.0125509
v -0.0349421 0.153911 -0.0126645
v 0.000111298 0.153452 -0.011658
v 0.0349447 0.120102 -0.0122279
v 0.0349373 0.0863959 0.0124829
v -0.0562959 0.228207 0.010997
v -0.0575549 0.193217 0.0359945
v -0.018463 0.158979 0.034974
v 0.019685 0.124491 0.034974
v 0.0575744 0.0898075 0.0355106
v 0.0571953 0.0553298 0.0104778
v 0.0827795 0.0553181 0.0127563
v 0.0832156 0.0898104 -0.0124588
v 0.057181 0.12448 -0.0106253
v 0.0578988 0.159389 -0.0361852
v 0.0214448 0.194334 -0.034974
v -0.0158708 0.227566 -0.034974
v -0.0569622 0.261486 -0.0357643
v -0.0572048 0.296356 -0.0104367
v -0.082622 0.297431 -0.0130171
v -0.0837755 0.262738 0.0123596
v -2.93551e-05 0.120043 0.011658
v -0.0349773 0.153914 0.0128009
v -0.0348766 0.187188 -0.0125918
v 0.000576382 0.186314 -0.011658
v 0.0349534 0.153361 -0.0124485
v 0.0349283 0.120065 0.0124118
v -0.0566724 0.264376 0.0105068
v -0.057074 0.22835 0.0358055
v -0.0174688 0.193949 0.034974
v 0.0201304 0.159547 0.034974
v 0.057859 0.124498 0.0358906
v 0.0570999 0.0898248 0.0107086
v 0.0825983 0.0898181 0.0129049
v 0.0827626 0.124514 -0.01283
v 0.0571204 0.159559 -0.0106671
v 0.0582198 0.1955 -0.0358102
v 0.0245903 0.229659 -0.034974
v -0.0138912 0.260135 -0.034974
v -0.0569575 0.295495 -0.0354108
v -0.0570819 0.330291 -0.0104433
v -0.0822631 0.333277 -0.012565
v -0.0818933 0.299101 0.012534
v 5.75721e-05 0.153359 0.011658
v -0.0349014 0.187177 0.012324
v -0.0346672 0.22035 -0.0126219
v 0.00212851 0.218557 -0.011658
v 0.0350222 0.185934 -0.0119548
v 0.0349168 0.153282 0.0126578
v -0.0435819 0.306518 0.0112337
v -0.0587029 0.266271 0.0363479
v -0.0176001 0.229141 0.034974
v 0.021018 0.194477 0.034974
v 0.0579745 0.159697 0.0369067
v 0.057232 0.124552 0.0103924
v 0.0828501 0.124539 0.0124295
v 0.0835468 0.159619 -0.0124476
v 0.0573872 0.195825 -0.0101637
v 0.0607496 0.239235 -0.0364662
v 0.0312029 0.258196 -0.0351005
v -0.014097 0.29333 -0.034974
v -0.057424 0.328987 -0.0363697
v -0.0538164 0.362358 -0.0107472
v -0.0816228 0.3647 -0.0125496
v -0.0817727 0.337178 0.0129091
v 0.000508941 0.186098 0.011658
v -0.0344866 0.220433 0.0122076
v 0.00732682 0.25012 -0.0122431
v -0.0342561 0.254168 -0.0129127
v 0.0354174 0.217351 -0.0125602
v 0.0349868 0.185748 0.0126563
v -0.0542616 0.337951 0.0106496
v -0.03894 0.284926 0.0110444
v -0.0342981 0.263334 0.0108551
v -0.039657 0.267929 0.0207456
v -0.02101 0.267099 0.034974
v 0.0236764 0.228742 0.034974
v 0.0580594 0.196542 0.0362109
v 0.0571653 0.159837 0.0103671
v 0.0823783 0.159714 0.0128602
v 0.0825718 0.195463 -0.0131427
v 0.0602395 0.239144 -0.00968775
v 0.042787 0.243194 -0.0253441
v 0.0311023 0.290537 -0.0355073
v -0.0162465 0.326958 -0.034974
v -0.0563698 0.361707 -0.0364688
v -0.0545777 0.403484 -0.0119889
v -0.0837202 0.405743 -0.0126367
v -0.108787 0.364624 -0.012331
v -0.10937 0.337406 -0.0143668
v -0.108829 0.335023 0.0123274
v 0.00198828 0.217981 0.011658
v -0.0339695 0.256325 0.0124497
v 0.0369111 0.247737 -0.0123634
v -0.0333762 0.286168 -0.0120606
v 0.009567 0.28373 -0.0123691
v 0.0352309 0.21696 0.0127916
v -0.0819895 0.367528 0.0124895
v -0.0532877 0.370413 0.011658
v -0.0553012 0.340978 0.0355605
v -0.0504212 0.313808 0.0367884
v -0.0358958 0.292295 0.0372933
v 0.0295116 0.252589 0.0354525
v 0.0590055 0.238663 0.0363196
v 0.0572201 0.196563 0.0103137
v 0.0823777 0.195755 0.012816
v 0.0815569 0.231877 -0.0122697
v 0.0355029 0.251277 -0.0104922
v 0.0359784 0.288702 -0.0113551
v 0.024738 0.323678 -0.0351346
v -0.018002 0.361558 -0.0357534
v -0.018712 0.361882 -0.0105581
v -0.0210137 0.401554 -0.011658
v -0.0553427 0.405695 0.0118977
v -0.084572 0.407052 0.0134397
v -0.10938 0.36201 0.0144492
v 0.00681612 0.248329 0.012879
v -0.0337816 0.28965 0.0123813
v 0.0355723 0.247317 0.014017
v -0.0329587 0.31726 -0.0122672
v 0.00984515 0.315844 -0.0134255
v 0.00995324 0.284138 0.0123477
v -0.021867 0.370789 0.011658
v -0.0207259 0.337715 0.0108547
v -0.0184363 0.338213 0.035987
v -0.0225481 0.304036 0.034974
v -0.0322797 0.300833 0.0363519
v 0.0111217 0.280089 0.0352201
v 0.0429023 0.247201 0.0109811
v 0.0825098 0.232025 0.0127965
v 0.0789223 0.260328 -0.0122346
v 0.080185 0.292567 -0.0124823
v 0.03434 0.317615 -0.00835053
v 0.0199047 0.361156 -0.0357179
v 0.0175868 0.361798 -0.010597
v -0.0587807 0.445503 -0.0128036
v -0.0258185 0.440714 -0.0117723
v 0.014878 0.400471 -0.011658
v -0.0591382 0.445531 0.0129649
v -0.0338757 0.318871 0.011658
v 0.00847076 0.315383 0.0130685
v -0.0238524 0.405447 0.011658
v 0.0108351 0.369915 0.011658
v 0.00987084 0.337597 0.0102877
v 0.0102782 0.337273 0.0360274
v 0.00804241 0.310826 0.034974
v 0.0343678 0.295016 0.0354752
v 0.0372604 0.294074 0.0110216
v 0.0810026 0.261896 0.012527
v 0.0801613 0.294787 0.0122987
v 0.0583835 0.323845 -0.0105215
v 0.0587126 0.320058 -0.0366357
v 0.0570446 0.360975 -0.0363497
v 0.0544358 0.362107 -0.0104833
v 0.00830638 0.438102 -0.011658
v -0.0291122 0.441945 0.0119175
v 0.0548194 0.400879 -0.0120835
v 0.0688049 0.247041 0.0121015
v 0.0105875 0.40403 0.011658
v 0.0389923 0.333736 0.0111374
v 0.0444738 0.367968 0.011658
v 0.0368717 0.337026 0.0382994
v 0.0793434 0.333271 0.012404
v 0.0824931 0.334538 -0.0125793
v 0.0736872 0.316983 -0.011861
v 0.0344426 0.420959 -0.0124044
v -0.0266775 0.47766 -0.0132682
v 0.00972117 0.476633 -0.012607
v -0.0271619 0.47779 0.0130825
v 0.0818003 0.364715 -0.0123144
v 0.0844533 0.406386 -0.0136318
v 0.00762987 0.439051 0.011658
v 0.0484474 0.402196 0.0118252
v 0.0798495 0.366117 0.0124577
v 0.108179 0.337344 0.0146521
v 0.109309 0.33748 -0.0143588
v 0.0342359 0.434883 -0.0127602
v 0.0368093 0.47583 -0.0125565
v 0.00941101 0.477034 0.0127342
v 0.0829176 0.406549 0.0140591
v 0.0598853 0.432237 -0.0138623
v 0.0396051 0.433524 0.0122202
v 0.108024 0.365008 0.0123052
v 0.0370887 0.477051 0.0146452
v 0.0138808 0.502075 0.0148048
v 0.0136275 0.501437 -0.0146576
v 0.0643173 0.432115 0.0147218
v 0.0507899 0.422612 0.0129224
v -0.106797 -0.24864 0.034974
v -0.10671 -0.220739 0.0557614
v -0.107345 -0.238958 0.0498925
v -0.104668 -0.257959 0.0170416
v -0.104943 -0.221202 0.0151506
v -0.108526 -0.247496 0.058942
v -0.101644 -0.255939 0.0460082
v -0.129315 -0.256104 0.0125944
v -0.12916 -0.221308 0.0136583
v -0.072119 -0.221502 0.0184712
v -0.0742659 -0.221152 0.0575789
v -0.0798994 -0.258126 0.0592907
v -0.108328 -0.267473 0.0597929
v -0.128962 -0.256212 -0.0135083
v -0.128908 -0.221367 -0.0144819
v -0.104168 -0.221007 -0.0141758
v -0.104883 -0.291989 0.0176026
v -0.128748 -0.291308 0.0137131
v -0.0716779 -0.221502 -0.0180436
v -0.0375506 -0.221502 0.0188035
v -0.0393411 -0.221474 0.0578627
v -0.0418235 -0.256892 0.05829
v -0.105496 -0.294694 0.0582025
v -0.104477 -0.256251 -0.0112799
v -0.128804 -0.291324 -0.0139383
v -0.10485 -0.291602 -0.0168507
v -0.105385 -0.219603 -0.0576053
v -0.0732694 -0.221396 -0.0572404
v -0.0371408 -0.221502 -0.0192442
v -0.00157659 -0.221502 0.018061
v -0.00308554 -0.221532 0.0576309
v -0.00652068 -0.256609 0.05829
v -0.0423529 -0.291464 0.0577739
v -0.0757096 -0.291839 0.0578985
v -0.0742965 -0.29145 0.0191624
v -0.106456 -0.25553 -0.0352517
v -0.0739128 -0.29145 -0.0183244
v -0.0782387 -0.2608 -0.0593898
v -0.108415 -0.245369 -0.0604304
v -0.0381696 -0.221649 -0.0578476
v -0.000904337 -0.221502 -0.0204191
v 0.0357967 -0.221502 0.0151944
v 0.0352277 -0.221535 0.0570583
v 0.0275897 -0.259447 0.05829
v -0.00863111 -0.291444 0.0576197
v -0.0426723 -0.29145 0.0191349
v -0.106227 -0.293437 -0.0581621
v -0.105802 -0.264441 -0.0607577
v -0.0420656 -0.29145 -0.0181496
v -0.0743619 -0.292316 -0.0576449
v -0.0399333 -0.257789 -0.05829
v -0.0016256 -0.221569 -0.0578815
v 0.0367557 -0.221502 -0.02268
v 0.0594634 -0.221572 0.0352242
v 0.0557365 -0.242701 0.0583883
v 0.02528 -0.291454 0.0576314
v -0.0118996 -0.29127 0.0175562
v -0.0109549 -0.29126 -0.0161806
v -0.0407225 -0.291722 -0.0575615
v -0.00259723 -0.25719 -0.05829
v 0.0367673 -0.221681 -0.058188
v 0.0758499 -0.22341 -0.0281335
v 0.0727506 -0.221502 0.00823937
v 0.0786251 -0.221714 0.0582468
v 0.0545656 -0.268299 0.05829
v 0.0567191 -0.291469 0.0581141
v 0.0184084 -0.291296 0.0179347
v -0.0054939 -0.291483 -0.0573641
v -0.0127408 -0.324086 0.0125712
v -0.0126635 -0.32413 -0.0128863
v 0.0367818 -0.258 -0.05829
v 0.0789435 -0.224401 -0.0589973
v 0.0931327 -0.222484 -0.00984527
v 0.0754843 -0.221608 0.0343486
v 0.0795084 -0.256888 0.0594674
v 0.084612 -0.291508 0.0601942
v 0.0663606 -0.29145 0.0193189
v 0.0124539 -0.324059 0.0135882
v 0.0235429 -0.291307 -0.0165669
v 0.0335572 -0.29156 -0.0577003
v -0.0124703 -0.357672 -0.013178
v -0.0125178 -0.357659 0.0132366
v 0.0136982 -0.324066 -0.012366
v 0.0794048 -0.261777 -0.0591006
v 0.107472 -0.223117 -0.0319572
v 0.104174 -0.22189 0.0109285
v 0.106982 -0.222116 0.0355887
v 0.0812566 -0.257178 0.0346905
v 0.0817646 -0.291631 0.03465
v 0.0706521 -0.29145 -0.0248158
v 0.0123328 -0.357658 0.0136322
v 0.0787239 -0.293598 -0.059744
v 0.0127126 -0.357656 -0.012952
v -0.0126759 -0.392448 -0.012804
v -0.0118998 -0.392293 0.0138899
v 0.080641 -0.271051 -0.034974
v 0.105777 -0.262711 -0.0359335
v 0.105823 -0.222503 -0.0105144
v 0.106665 -0.257422 0.0360188
v 0.104465 -0.257542 0.0113532
v 0.107583 -0.291836 0.0356399
v 0.104258 -0.291709 0.0107113
v 0.0900514 -0.291961 -0.00796243
v 0.0124089 -0.39209 0.0134678
v 0.0123683 -0.392237 -0.013758
v -0.00242503 -0.406648 0.00440073
v 0.104418 -0.259194 -0.0114938
v 0.130172 -0.222563 -0.0125574
v 0.130527 -0.221771 0.0151253
v 0.129355 -0.257689 0.0126851
v 0.105378 -0.292896 -0.0305386
v 0.0127771 -0.427538 -0.0113902
v -0.012915 -0.429013 -0.00449736
v 0.104818 -0.292302 -0.00991365
v 0.129837 -0.258107 -0.0127317
v 0.13136 -0.291992 0.0127048
v 0.0129567 -0.427395 0.0119474
v -0.0125233 -0.427855 -0.0366944
v 0.0149786 -0.42789 -0.0354863
v 0.131412 -0.292231 -0.0121612
v 0.0125814 -0.438662 -0.0126393
v -0.011552 -0.454995 -0.0351406
v -0.0105685 -0.455865 9.8863e-08
v 0.0115399 -0.454669 -0.034472
v -0.0156137 -0.431346 0.0367402
v 0.0123596 -0.427406 0.0372811
v 0.0106547 -0.45582 0.00620437
v -0.0111067 -0.454518 0.0352771
v -0.0359591 -0.453416 0.000233663
v -0.0372458 -0.451551 -0.0349318
v -0.0118559 -0.47745 -0.0350393
v 0.0114241 -0.477943 -0.0349693
v 0.0116115 -0.454245 0.0360571
v -0.0355914 -0.452119 0.0351097
v -0.0386192 -0.480377 -0.034964
v -0.0359957 -0.47964 -4.58024e-05
v -0.0150989 -0.501294 -0.035151
v 0.0142178 -0.501892 -0.0351291
v 0.0354006 -0.480333 -0.0346909
v 0.0359678 -0.452241 -0.0342964
v 0.0357762 -0.453626 0.00188847
v 0.03863 -0.452043 0.0352501
v -0.0114137 -0.478023 0.0348438
v 0.011209 -0.477951 0.0349323
v -0.0357244 -0.480246 0.034903
v -0.0108066 -0.476737 -0.000359386
v -0.012576 -0.503035 -0.000510686
v 0.0133953 -0.502186 -0.000409377
v 0.0103707 -0.477049 -8.73643e-05
v 0.0357456 -0.479277 0.000598422
v 0.0382189 -0.4803 0.0350641
v 0.0139402 -0.501897 0.0346825
v -0.0126651 -0.504036 0.0347098
v -0.0762372 -0.253398 -0.00625439
v -0.105783 -0.255284 -0.0121531
v -0.0958951 -0.255116 -0.00207048
v -0.0958951 -0.255116 -0.00207048
v -0.105665 -0.256665 0.0121961
v -0.0801069 -0.252836 -0.0353881
v -0.0779434 -0.258123 -0.0260322
v -0.0365924 -0.244818 -0.00174948
v -0.0362586 -0.243348 -0.0351408
v -0.0774861 -0.268134 -0.036454
v -0.0786205 -0.242005 0.0356016
v -0.0361744 -0.243952 0.0348094
v 0.00278561 -0.244818 -0.000908538
v 0.00333557 -0.243969 -0.0349479
v -0.0362707 -0.269108 -0.035435
v -0.0370394 -0.268134 -0.00219206
v -0.0779313 -0.255471 0.0212269
v -0.0789362 -0.271011 0.0343334
v -0.0362183 -0.268934 0.0344533
v 0.00346496 -0.243982 0.0349696
v 0.0407401 -0.244818 -0.00213617
v 0.0413492 -0.24389 -0.0351781
v 0.00339793 -0.269029 -0.0351453
v 0.00270674 -0.268134 -0.00144423
v 0.00348376 -0.268964 0.0347097
v 0.0415653 -0.242828 0.035
v 0.0769884 -0.243707 -0.00800885
v 0.0806089 -0.240395 -0.0355747
v 0.0414334 -0.268635 -0.0356338
v 0.0407644 -0.268134 -0.00337518
v 0.0419249 -0.268876 0.0342437
v 0.0792601 -0.242512 0.036542
v 0.0841343 -0.256603 -0.0205451
v 0.0807653 -0.270259 -0.0358754
v 0.076656 -0.268496 -0.0106943
v 0.0806612 -0.26187 0.0339362
v 0.0786586 -0.265183 0.0116209
v 0.105653 -0.260155 -0.0125722
v 0.063822 -0.266512 0.0132172
v 0.105662 -0.257692 0.0120233
v 0.0804919 -0.266309 -0.0332988
vn -0.000206006 0.999999 -0.00135296
vn -0.201257 0.0964241 0.974781
vn -0.000206006 0.999999 -0.00135296
vn -0.000206006 0.999999 -0.00135296
vn -0.104748 0.00294163 0.994494
vn 0.999269 -0.0278938 0.0261293
vn 0.985167 0.122485 -0.120179
vn -0.351416 0.109593 -0.929783
vn 0.999932 0.00919418 0.00723385
vn -0.113473 -0.0193989 0.993352
vn 0.999857 -0.00547033 0.016
vn 0.00119071 0.999998 0.00135019
vn -0.0212086 -0.0358263 0.999133
vn -0.11187 0.0141721 -0.993622
vn 0.986326 0.144191 0.0798114
vn -0.0143429 -0.000711038 0.999897
vn 0.999996 0.00246791 0.00142783
vn -0.117868 0.0168275 0.992887
vn 0.999846 0.0175696 0.000571499
vn -0.10477 -0.121862 -0.987002
vn 0.000325499 0.999983 0.00576516
vn -0.00801233 -0.0178538 0.999808
vn -0.109981 -0.0155966 -0.993811
vn 0.999426 0.0011517 -0.0338468
vn -0.0175793 -0.0343911 -0.999254
vn 0.00675541 0.999977 -0.00057458
vn 0 0 1
vn -0.0150406 0.000587544 0.999887
vn 0.999937 0.00717411 -0.00860913
vn -0.128448 0.00435551 0.991707
vn 0.999807 -0.0041867 0.01921
vn -0.955132 0.243419 0.168733
vn 0.0255979 -0.00399258 -0.999664
vn -0.0227199 -0.0336657 -0.999175
vn -0.00256624 0.99999 0.00376608
vn 0.0186045 0.000608312 0.999827
vn -0.0879188 0.0134356 -0.996037
vn 0.999739 0.00919756 -0.020898
vn -0.0143688 -0.0012767 -0.999896
vn -0.00372988 -0.0258443 -0.999659
vn 0.000128294 0.999988 -0.00489769
vn 0.00675541 0.999977 -0.00057458
vn 0.00675541 0.999977 -0.00057458
vn 0.0205159 -0.00449231 0.999779
vn 0 0 1
vn -0.0257192 0.0107872 0.999611
vn 0.999895 -0.00311942 -0.0141787
vn -0.102544 -0.015047 0.994615
vn 0.999398 -0.00839064 0.0336777
vn -0.0444832 -0.0984497 0.994147
vn -0.999958 0.00918476 0.000225627
vn 0.024386 0.00356147 -0.999696
vn -0.0298198 0.004114 -0.999547
vn 0.991211 -0.131334 0.0159015
vn -0.00545972 0.999984 -0.00122178
vn -0.998092 -0.0287674 -0.0546354
vn -0.0913928 -0.0113095 -0.995751
vn 0.99994 -0.0108476 -0.00143407
vn -0.0177585 0.00412784 -0.999834
vn -0 -0 -1
vn 0.0277694 -0.0223117 -0.999365
vn 0.000652996 0.999983 -0.0058506
vn -0.998899 0.00833714 -0.0461727
vn 0.0203322 0.00528872 0.999779
vn 0 0 1
vn -0.0271665 -0.00972307 0.999584
vn 0.999782 -0.00555544 -0.0201498
vn -0.0822263 0.00880612 0.996575
vn 0.999474 0.0189478 0.026326
vn -0.0205702 -0.028517 0.999382
vn 0.0272736 0.00307808 0.999623
vn -0.999992 0.00377768 -0.00144548
vn 0.0261538 -0.00581495 -0.999641
vn -0.0233493 0.0043399 -0.999718
vn 0.999838 -0.0174873 0.00435304
vn -0.00162258 0.999995 -0.00286523
vn -0.000196965 1 -0.000208555
vn 0.0788408 -0.0164551 0.996751
vn -0.0796294 0.0113247 -0.99676
vn 0.99988 0.0143108 0.00590027
vn -0.0150918 -0.00784003 -0.999855
vn -0 -0 -1
vn 0.0199511 -0.00433981 -0.999792
vn -0.998653 -0.0171758 0.0489684
vn 0.0878827 -0.00670703 0.996108
vn -0.999595 -0.00268879 -0.0283461
vn 0.0194334 -0.00566951 0.999795
vn 0 0 1
vn -0.0197663 0.00140449 0.999804
vn 0.999669 -0.000493263 -0.0257317
vn -0.0924824 0.00143305 0.995713
vn 0.999464 -0.0195769 0.0262315
vn -0.0207934 0.00375942 0.999777
vn 0.0232909 -0.000573641 0.999729
vn -0.999999 0.00111505 -0.000496096
vn 0.0311622 0.000532009 -0.999514
vn -0.0224236 -0.00296676 -0.999744
vn 0.999986 -0.00489716 0.00211686
vn 0.0940199 -0.00718141 -0.995544
vn -0.996517 -0.0833615 0.00236949
vn -0.0679899 0.00139265 -0.997685
vn 0.999575 -0.017127 0.0235973
vn -0.0123607 0.00463165 -0.999913
vn -0 -0 -1
vn 0.0191432 0.00449275 -0.999807
vn -0.999436 -0.00345373 0.0333944
vn -0.999947 -0.00468822 -0.00918819
vn 0.09345 -0.0029043 0.99562
vn -0.999831 0.0018044 -0.0182892
vn 0.0186377 0.00507274 0.999813
vn 0 0 1
vn -0.0215308 0.000562369 0.999768
vn 0.999754 0.00075407 -0.0221547
vn -0.0938445 0.000473548 0.995587
vn 0.999921 -0.00994644 0.00771099
vn -0.023383 -0.0051848 0.999713
vn 0.0339845 -0.0107631 0.999364
vn -1 0.000371053 -0.00020277
vn 0.0319298 -0.00137689 -0.999489
vn -0.0239346 0.00158614 -0.999712
vn 0.999999 -0.00115348 0.000273113
vn 0.105732 -0.0143525 -0.994291
vn -0.115904 0.00773461 -0.99323
vn 0.999443 0.0121186 0.0311064
vn -0.0203349 0.00413207 -0.999785
vn -0 -0 -1
vn 0.0244202 0.00190902 -0.9997
vn -0.999657 -0.00254177 0.0260524
vn -0.999949 -0.00136159 -0.0100287
vn 0.0819976 -0.0196293 0.996439
vn -0.999418 -0.0171268 -0.0295091
vn 0.0240039 0.00101062 0.999711
vn 0 0 1
vn -0.0196821 -0.00255694 0.999803
vn 0.999781 0.00187659 -0.0208519
vn -0.082094 -0.00541872 0.99661
vn 0.999792 0.0184362 0.00876293
vn -0.0312912 -0.00240295 0.999507
vn 0.0323262 0.0122242 0.999403
vn -1 3.86202e-05 -4.21242e-05
vn 0.0310844 0.00223038 -0.999514
vn -0.0231683 -0.000762845 -0.999731
vn 1 -0.000253314 0.00029603
vn 0.109748 0.0170918 -0.993813
vn -0.111134 -0.0140532 -0.993706
vn 0.999923 -0.000719207 0.0123563
vn -0.0213019 -0.00311372 -0.999768
vn -0 -0 -1
vn 0.0223864 -0.00377061 -0.999742
vn -0.999101 -0.00835702 0.0415592
vn -0.999348 0.0318756 -0.0169839
vn 0.0741511 0.0305425 0.996779
vn -0.998408 0.00206803 -0.0563627
vn 0.0263752 0.00164102 0.999651
vn 0 0 1
vn -0.0215372 0.0047429 0.999757
vn 0.999845 -0.00413322 -0.0171115
vn -0.088467 -0.000662443 0.996079
vn 0.999957 -0.00768635 -0.00511174
vn -0.0295839 0.00437846 0.999553
vn 0.0217382 -0.00150409 0.999763
vn -1 2.83246e-05 -0.000200968
vn 0.0265879 0.00237213 -0.999644
vn -0.0218725 0.00210417 -0.999759
vn 1 -0.000153923 0.000231847
vn 0.083821 -0.0151073 -0.996366
vn -0.0897779 0.0322141 -0.995441
vn 0.999845 -0.0075229 0.0159241
vn -0.0199868 0.00173446 -0.999799
vn -0 -0 -1
vn 0.0176881 -0.00128576 -0.999843
vn -0.999321 0.0131878 0.0344119
vn -0.999817 -0.0190027 -0.00212167
vn 0.0529365 -0.0110233 0.998537
vn -0.999305 0.0155379 -0.0338882
vn 0.0162904 -0.0130092 0.999783
vn 0 0 1
vn -0.0193439 -0.00689242 0.999789
vn 0.999836 -0.00092187 -0.018104
vn -0.0910274 -0.00110108 0.995848
vn 0.999973 0.00129545 -0.00729436
vn -0.0289867 -0.00371753 0.999573
vn 0.0231803 2.39084e-05 0.999731
vn -1 -0.00010128 -0.000515041
vn 0.0270011 -0.00281756 -0.999632
vn -0.0227657 -0.00302288 -0.999736
vn 1 0.00017747 0.000207631
vn 0.0693777 -0.00670876 -0.997568
vn -0.0931996 -0.0228729 -0.995385
vn 0.999245 -0.0122906 0.0368458
vn -0.0214495 9.41251e-05 -0.99977
vn -0 -0 -1
vn 0.0134354 -0.00339676 -0.999904
vn -0.99891 -0.0228078 0.0407211
vn -0.999798 0.014201 -0.0142348
vn 0.0597329 -0.0105341 0.998159
vn -0.99958 -0.0138324 -0.0254497
vn 0.0131142 0.0093858 0.99987
vn 0 0 1
vn -0.0169139 0.0044629 0.999847
vn 0.999842 0.00394993 -0.017312
vn -0.0734098 -0.000821507 0.997302
vn 0.999914 0.0064146 0.0114847
vn -0.0306939 0.00198918 0.999527
vn 0.0248129 -0.0016856 0.999691
vn -1 -0.000150374 -0.000754349
vn 0.0375481 -0.00814604 -0.999262
vn -0.0277811 -0.00212899 -0.999612
vn 1 0.00018393 0.000545373
vn 0.0785986 0.0128755 -0.996823
vn -0.0892658 -0.00302903 -0.996003
vn 0.999309 0.0130702 0.0347894
vn -0.0225233 0.00132696 -0.999745
vn -0 -0 -1
vn 0.0149873 0.00505314 -0.999875
vn -0.999424 0.0190865 0.0280716
vn -0.999051 -0.00491236 -0.0432693
vn 0.0775084 0.010781 0.996933
vn -0.999411 0.0132569 -0.031661
vn 0.025141 0.00369599 0.999677
vn 0 0 1
vn -0.0223779 0.00260145 0.999746
vn 0.999793 -0.0202741 0.00200087
vn -0.063882 0.00720464 0.997931
vn 0.999984 -0.00180613 0.00530469
vn -0.0218583 0.00706027 0.999736
vn 0.0259448 0.000550571 0.999663
vn -0.999999 -0.000291364 -0.00104416
vn 0.0371356 0.00867596 -0.999273
vn -0.0230909 0.0070234 -0.999709
vn 1 -8.75528e-06 0.000754589
vn 0.104898 -0.00533839 -0.994469
vn -0.0791635 0.0106753 -0.996805
vn 0.999893 0.00148827 0.0145493
vn -0.0260902 0.00303135 -0.999655
vn -0 -0 -1
vn 0.0168337 -0.00313307 -0.999853
vn -0.99999 0.000571707 0.00436715
vn -0.999754 -0.00735202 -0.0209071
vn 0.0873912 -0.0154551 0.996054
vn -0.999643 0.00181337 -0.0266568
vn 0.030442 0.00141136 0.999536
vn 0 0 1
vn -0.0141792 -0.0107374 0.999842
vn 0.999919 0.00965268 0.00832299
vn -0.0831781 -0.00198211 0.996533
vn 0.999769 0.0164307 0.0138763
vn -0.0192658 -0.00444546 0.999805
vn 0.0254752 -6.67505e-05 0.999675
vn -0.999999 0.000361563 -0.0012892
vn 0.0275193 0.000886099 -0.999621
vn -0.0194921 -0.00327391 -0.999805
vn 1 0.000286781 0.000689227
vn 0.114796 -0.00532531 -0.993375
vn -0.0685012 -0.0151423 -0.997536
vn 0.999557 -0.0203171 0.0217604
vn -0.0269316 -0.000964594 -0.999637
vn -0 -0 -1
vn 0.0190403 0.00533101 -0.999805
vn -0.999834 -0.00214237 0.0180796
vn -0.999936 0.00531482 -0.00997395
vn 0.089174 0.0142706 0.995914
vn -0.999586 -0.000500731 -0.0287565
vn 0.0277002 -0.00586398 0.999599
vn 0 0 1
vn -0.0118072 0.00942891 0.999886
vn 0.999973 0.00175527 0.00718479
vn -0.0930413 -0.00588154 0.995645
vn 0.99945 -0.0331535 0.000271722
vn -0.0225715 0.00105275 0.999745
vn 0.0290336 -0.00379091 0.999571
vn -0.999997 0.00211822 -0.00119408
vn 0.0262123 -0.00116461 -0.999656
vn -0.0156783 0.00763888 -0.999848
vn 0.999999 4.16644e-05 0.00107124
vn 0.0872688 0.0058295 -0.996168
vn -0.0487509 0.0214528 -0.998581
vn 0.998127 0.0273411 0.0547351
vn -0.0232406 -0.00256886 -0.999727
vn -0 -0 -1
vn 0.0373715 0.0141862 -0.999201
vn -0.999741 0.00598041 0.0219389
vn -0.99994 -0.0030244 -0.0104939
vn 0.0762661 -0.00562785 0.997072
vn -0.999466 0.00849891 -0.031557
vn 0.0307466 0.00693356 0.999503
vn 0.00156522 0.00171361 0.999997
vn -0.0145083 -0.00536517 0.99988
vn 0.999985 0.00501185 -0.00229506
vn -0.0724913 0.00910429 0.997328
vn 0.999712 -0.00612071 -0.0232278
vn -0.0251079 -0.00366149 0.999678
vn 0.0257963 0.00707494 0.999642
vn -0.999951 0.00940874 0.0031088
vn 0.0193876 -0.0148708 -0.999701
vn -0.0177496 -0.00883307 -0.999803
vn 0.999997 -0.00214515 0.00143892
vn 0.0825183 -0.0118149 -0.99652
vn -0.0488234 -0.00875884 -0.998769
vn 0.0161321 0.0122337 -0.999795
vn 0.132894 -0.954036 -0.268617
vn -0.0285023 0.00524408 -0.99958
vn -0 -0 -1
vn 0.0426938 -0.0105062 -0.999033
vn -0.999618 0.000301601 0.0276495
vn -0.99976 0.00467554 -0.021418
vn 0.0912977 0.00343736 0.995818
vn -0.99777 0.0616134 -0.0256749
vn -0.296612 -0.860267 0.414682
vn -0.296612 -0.860267 0.414682
vn 0.00763488 0.00616094 0.999952
vn -0.0208932 0.0134576 0.999691
vn 0.996364 -0.0664951 -0.0532685
vn -0.0413106 0.0147553 0.999037
vn -0.0315799 -0.0316988 0.998998
vn 0.0381974 0.998894 -0.02741
vn -0.0288036 0.000253177 0.999585
vn 0.0169449 0.00133404 0.999856
vn -0.999873 0.0133509 0.0087258
vn -0.0171695 -0.00466954 -0.999842
vn 0.00489298 0.010438 -0.999934
vn 0.999939 -0.0101807 0.00436738
vn 0.0887166 0.00639707 -0.996036
vn -0.0550981 0.010788 -0.998423
vn 0.959445 0.26436 0.0978753
vn 0.905022 0.421541 -0.0569048
vn 0.132894 -0.954036 -0.268617
vn 0.132894 -0.954036 -0.268617
vn 0.132894 -0.954036 -0.268617
vn 0.00673755 0.00584223 -0.99996
vn 0.0355965 -1.91168e-05 -0.999366
vn -0.999504 0.00221872 0.0314172
vn -0.999561 -0.0138005 -0.0262238
vn 0.115717 -0.0193735 0.993093
vn -0.296612 -0.860267 0.414682
vn -0.296612 -0.860267 0.414682
vn -0.982414 0.00929799 0.186484
vn 0.00793168 -0.00450874 0.999958
vn -0.0264301 0.0130014 0.999566
vn -0.00854782 -0.999773 0.0195238
vn -0.00652414 0.0287456 0.999566
vn -0.0606846 -0.995887 0.0672823
vn 0.99815 0.0576379 0.0193554
vn 0.103469 -0.994629 0.00262424
vn 0.999999 -0.000752854 0.000923463
vn -0.0294529 0.0266963 -0.99921
vn -0.0314458 -0.00125364 0.999505
vn -0.00209803 -0.0207072 0.999783
vn -0.999862 0.0161528 -0.00394328
vn 0.0576236 0.997356 0.0442686
vn 0.99909 -0.0308879 0.029416
vn -0.0179838 -0.0199917 -0.999638
vn 0.996988 -0.0775602 0.000449061
vn 0.0986627 -0.00141014 -0.99512
vn -0.0413508 0.0138066 -0.999049
vn 0.00320456 0.0276107 -0.999614
vn -0.044765 -0.996452 0.0712694
vn -0.0159563 0.0018218 -0.999871
vn -0.0952532 -0.0875866 -0.991592
vn 0.839517 0.14405 -0.52389
vn 0.132894 -0.954036 -0.268617
vn 0.00838664 -0.00293499 -0.999961
vn 0.0164657 -0.853553 -0.520745
vn -0.940405 -0.153427 0.303479
vn -0.999817 -0.0123482 0.0145893
vn 0.0476669 0.0290512 0.998441
vn -0.296612 -0.860267 0.414682
vn 0.0303364 0.0157881 0.999415
vn -0.956712 -0.140726 0.25475
vn 0.00258378 0.0190097 0.999816
vn -0.00663353 -0.999801 0.0187999
vn -0.0193598 0.00960092 0.999766
vn 0.000985467 0.0276359 0.999618
vn 0.995098 0.0972589 0.017939
vn -0.0376026 -0.0370355 0.998606
vn -0.00305198 0.00909788 0.999954
vn -0.999601 0.00518888 -0.0277583
vn 0.0574733 0.998184 -0.0180309
vn 0.999614 0.018748 0.0205073
vn 0.0674878 0.0204988 -0.99751
vn -0.00381836 0.00323643 -0.999987
vn -0.00811523 0.0330985 -0.999419
vn -0.0173452 -0.999841 0.0041531
vn -0.00273737 0.0337394 -0.999427
vn -0.0952532 -0.0875866 -0.991592
vn -0.0952532 -0.0875866 -0.991592
vn 0.00838664 -0.00293499 -0.999961
vn 0.00838664 -0.00293499 -0.999961
vn -0.945186 -0.0132224 -0.326264
vn -0.995565 -0.069958 0.0629036
vn -0.999137 0.00644465 0.0410375
vn 0.0486774 -0.0603578 0.996989
vn -0.0136603 0.998567 0.0517436
vn 0.0296132 0.00566733 0.999545
vn 0.00196725 -0.999382 0.0350999
vn -0.00151722 0.00129585 0.999998
vn 0.132443 0.991081 -0.0147228
vn 0.00401018 0.0344707 0.999398
vn -0.0195627 0.0155209 -0.999688
vn -0.0158522 -0.00112743 0.999874
vn 0.0431714 -0.0068363 -0.999044
vn -0 -0 -1
vn 0.0149297 0.0264552 -0.999538
vn -0.0794037 -0.995306 0.0553237
vn 0.0685413 0.0546209 -0.996152
vn 0.00838664 -0.00293499 -0.999961
vn 0.00838664 -0.00293499 -0.999961
vn -0.993425 0.0554269 -0.100168
vn 0.0343377 0.00139226 -0.999409
vn 0.0431714 -0.0068363 -0.999044
vn -0.997714 0.0201533 -0.0644998
vn 0.0861157 -0.00243215 0.996282
vn -0.996347 -0.0694879 -0.0496305
vn 0.0323521 0.0249782 0.999164
vn -0.00958751 0.0322751 0.999433
vn 0.997252 -0.0139814 0.0727474
vn 0.0540032 0.0339572 0.997963
vn 0.0323521 0.0249782 0.999164
vn -0.00355113 0.00328542 -0.999988
vn 0.0431714 -0.0068363 -0.999044
vn 0.00258917 0.00231641 -0.999994
vn 0.0277361 0.00619164 -0.999596
vn 0.0305062 0.0024585 -0.999532
vn -0.12589 0.991938 0.0145227
vn 0.0861157 -0.00243215 0.996282
vn 0.0861157 -0.00243215 0.996282
vn 0.074505 0.00148838 0.99722
vn 0.0323521 0.0249782 0.999164
vn 0.0200014 0.00790282 0.999769
vn -0.0244671 -0.999653 0.0098027
vn -0.00675389 0.030623 -0.999508
vn -0.9953 0.0694557 -0.0674866
vn 0.148879 -0.987672 0.0483686
vn 0.0323521 0.0249782 0.999164
vn 0.0105562 0.00734696 -0.999917
vn 0.0422303 0.021188 -0.998883
vn 0.0390782 -0.0345531 -0.998639
vn -0.720529 -0.489711 0.490939
vn 0.0323521 0.0249782 0.999164
vn -0.994508 -0.00451172 0.104563
vn -0.544974 -0.697351 0.465515
vn 0.986158 -0.165774 0.00344195
vn 0.0439481 0.0442788 -0.998052
vn 0.699943 0.437742 -0.564324
vn -0.254459 0.477321 -0.841079
vn -0.83015 -0.261787 -0.492258
vn 0.102975 0.0415946 -0.993814
vn -0.734693 -0.398352 -0.549129
vn 0.102975 0.0415946 -0.993814
vn 0.102975 0.0415946 -0.993814
vn 0.995484 -0.0586932 0.0746052
vn 0.998464 -0.0078196 0.0548483
vn 0.995484 -0.0586932 0.0746052
vn 0.995484 -0.0586932 0.0746052
vn -0.132204 -0.989774 -0.0535585
vn 0.12113 -0.012368 -0.99256
vn -0.011669 -0.999885 0.00964133
vn 0.0235288 -0.0737664 -0.996998
vn -0.132204 -0.989774 -0.0535585
vn -0.132204 -0.989774 -0.0535585
vn 0.999934 -0.00301698 0.0110812
vn 0.00966339 -0.999951 -0.00227317
vn 0.16828 -0.0231489 -0.985467
vn -0.0121761 -0.999922 -0.00282373
vn -0.00469199 -0.999978 0.00460536
vn -0.132204 -0.989774 -0.0535585
vn -0.0101324 -0.0287571 -0.999535
vn 0.99768 0.036321 0.0575817
vn -0.132204 -0.989774 -0.0535585
vn -0.0515823 0.0555112 0.997125
vn 0.999932 0.0103646 0.00528445
vn 0.0198849 0.999781 0.00659333
vn -0.0362124 -0.999186 -0.0177875
vn -0 -1 -0
vn -0.000813123 -1 -6.15161e-05
vn -0.00323587 -0.0151213 -0.99988
vn -0.0171152 0.0268865 -0.999492
vn -0.0232328 0.0452779 -0.998704
vn -0.0564284 0.997677 0.038169
vn 0.0124953 -0.0855763 0.996253
vn 0.995964 -0.00619815 -0.0895378
vn -0.0112025 0.999924 0.00507148
vn -0.0406148 -0.0658408 0.997003
vn -0.0036463 -0.999993 0.000629457
vn 0.996851 -0.0614781 -0.0500812
vn -0 -1 -0
vn -6.76467e-05 -1 -0.000771399
vn -0.00920615 -0.0247589 -0.999651
vn -0.00225817 0.017185 -0.99985
vn -0.00591162 0.999969 0.00512181
vn 0.999711 0.0158616 -0.018079
vn 0 1 0
vn -0.0209685 0.999226 -0.0332689
vn -0.00626141 -0.0346143 0.999381
vn 0.325982 0.941877 0.0812587
vn 0.00115885 -0.999995 0.00279954
vn -0 -1 -0
vn -0.00251735 -0.999993 -0.00266228
vn 0.0248322 -0.0246677 -0.999387
vn 0.00100363 0.0197836 -0.999804
vn -0.00289865 0.999993 0.00255366
vn -0.035759 0.0685862 0.997004
vn -0.00596868 0.999982 8.16466e-06
vn -0.00925271 0.999851 -0.0145452
vn -0.0191908 0.0363469 0.999155
vn 0.00056417 -0.0118819 0.999929
vn -0.00137854 -0.999994 0.00333335
vn -0.0219263 -0.999475 0.0238511
vn -0.00251735 -0.999993 -0.00266228
vn -0.00251735 -0.999993 -0.00266228
vn 0.0248322 -0.0246677 -0.999387
vn 0.0248322 -0.0246677 -0.999387
vn 0.0110715 0.0160015 -0.999811
vn 0.000521246 0.999992 0.00409417
vn -0.00627815 0.999958 -0.00665592
vn 0.999048 -0.0392836 0.0189465
vn -0.00292378 0.0244136 0.999698
vn 0.00380505 -0.00710565 0.999968
vn -0.0561049 -0.998324 0.0141913
vn -0.000877136 -0.999259 0.038485
vn -0.00251735 -0.999993 -0.00266228
vn -0.00251735 -0.999993 -0.00266228
vn 0.0248322 -0.0246677 -0.999387
vn 0.0248322 -0.0246677 -0.999387
vn 0.0627534 -0.00399675 -0.998021
vn 0.0023239 0.999995 0.00234702
vn 0.0236529 0.138462 -0.990085
vn 0.00164885 0.999984 -0.0054581
vn 0.999978 0.0062125 0.00238676
vn -0.000209265 0.113505 0.993537
vn 0.00451298 0.0219755 0.999748
vn 0.0188956 -0.00266145 0.999818
vn -0.000877136 -0.999259 0.038485
vn -0.000877136 -0.999259 0.038485
vn -0.0139272 -0.999891 -0.004946
vn -0.995213 -0.0938518 0.0272612
vn -0.996407 -0.081227 0.0239944
vn 0.00410054 0.999992 -0.00034076
vn 0.00313471 0.999995 0.000246357
vn -0.966202 0.233667 -0.108875
vn 0.0283067 -0.0105102 -0.999544
vn 0.020795 0.999486 -0.0243949
vn -0.0145796 -0.0129029 0.999811
vn 0.999888 0.00571282 -0.0138212
vn 0.0327155 -0.00226274 0.999462
vn 0.1038 -0.120165 0.987312
vn -0.000877136 -0.999259 0.038485
vn -0.000877136 -0.999259 0.038485
vn 0.0443172 -0.00745827 -0.99899
vn -0.994883 0.00154132 0.101026
vn 0.045214 0.00701737 -0.998953
vn 0.00775443 0.999962 0.00405231
vn 0.0204467 0.999717 -0.0121994
vn -0.999389 0.0167094 -0.0307032
vn -0.000327101 -0.00711869 -0.999975
vn 0.0144641 -0.00629678 0.999876
vn 0.643444 0.111146 -0.757381
vn -0.9966 0.0451464 -0.068918
vn -4.77881e-05 -0.999592 0.0285784
vn -0.99376 -0.0119941 0.110889
vn 0.109012 0.0268199 -0.993679
vn 0.0204467 0.999717 -0.0121994
vn 0.0204467 0.999717 -0.0121994
vn -0.999973 0.00398753 -0.00622011
vn 0.643444 0.111146 -0.757381
vn 0.14947 0.147741 0.977666
vn 0.643444 0.111146 -0.757381
vn -0.999047 -0.00516981 -0.0433333
vn 0.0657963 -0.0177064 0.997676
vn -0.999773 0.0212049 -0.00222138
vn 0.064343 0.0107454 -0.99787
vn 0.0204467 0.999717 -0.0121994
vn 0.0204467 0.999717 -0.0121994
vn -0.9999 -0.0134949 0.00419784
vn 0.643444 0.111146 -0.757381
vn 0.0241579 -0.999565 -0.0169418
vn 0.643444 0.111146 -0.757381
vn 0.0665042 0.0336365 0.997219
vn -0.998579 -0.0523355 -0.0100059
vn 0.00394456 0.999842 -0.0173573
vn -0.995241 0.0916082 -0.0332313
vn 0.998148 0.0603181 -0.00785612
vn -0.0379195 0.0493215 0.998063
vn -0.995241 0.0916082 -0.0332313
vn 0.114269 -0.992837 -0.0349016
vn -0.995241 0.0916082 -0.0332313
vn 0.989739 0.13529 0.0459814
vn -0.11498 -0.992754 -0.0349139
vn -0.0159054 -0.00874925 0.999835
vn -0.995241 0.0916082 -0.0332313
vn -0.998465 0.0549477 0.00698981
vn 0.0203213 0.0544726 -0.998308
vn -0.995241 0.0916082 -0.0332313
vn -0.0966099 -0.994625 0.0372479
vn 0.998079 -0.0263591 -0.0560606
vn 0.0053804 0.000819806 0.999985
vn -0.00173884 -0.00566354 0.999982
vn -0.00933313 -0.0168929 0.999814
vn 0.0880407 -0.995139 0.0441243
vn 0.0189265 0.0327629 -0.999284
vn 0.0901498 -0.995438 -0.0312554
vn 0.00228649 0.011888 -0.999927
vn 0.999954 -0.00309676 -0.00911867
vn -0.111534 0.99365 -0.014816
vn -0.00300682 0.999563 0.0294007
vn -0.992744 -0.11746 -0.0257494
vn 0.993839 -0.0975169 -0.0526828
vn 0.093505 0.99526 -0.0267262
vn -0.999932 0.0114855 0.00210267
vn -0.996922 0.00643321 0.078133
vn -0.0124127 0.0236581 -0.999643
vn 0.000678164 0.00760102 -0.999971
vn -0.103008 0.994331 0.0263622
vn -0.0570664 0.998315 0.0105115
vn -0.992989 -0.116735 0.0185686
vn 0.998299 -0.0577481 0.00799261
vn 0.0866468 0.995963 0.0234608
vn -0.0748893 0.995571 0.0568391
vn -0.0748893 0.995571 0.0568391
vn -0.0748893 0.995571 0.0568391
vn -0.0748893 0.995571 0.0568391
vn -0.0748893 0.995571 0.0568391
vn -0.0748893 0.995571 0.0568391
vn -0.97625 -0.176044 0.126273
vn -0.213552 0.975959 0.043579
vn -0.97625 -0.176044 0.126273
vn -0.97625 -0.176044 0.126273
vn -0.0691458 0.983609 -0.166528
vn 0.00742914 0.999381 0.0343855
vn 0.0116546 0.0273315 -0.999559
vn -0.202519 -0.949882 0.238141
vn -0.998076 0.0135089 -0.0605098
vn 0.00791076 -0.0312193 0.999481
vn 0.000675155 0.999723 -0.0235079
vn -0.000531328 0.99965 0.0264553
vn 0.00615552 0.00970295 -0.999934
vn 0.000630009 -0.99961 0.0279141
vn -0.132348 -0.958479 -0.25259
vn -0.998076 0.0135089 -0.0605098
vn -0.998076 0.0135089 -0.0605098
vn -0.00525984 -0.0123267 0.99991
vn -0.0157947 0.999129 -0.0386246
vn -0.0572217 0.996445 0.0618345
vn -0.00953163 0.0130494 -0.999869
vn 0.00586056 -0.999754 0.0213979
vn -9.48401e-05 -0.999749 -0.022388
vn 0.00604216 -0.0200622 0.99978
vn -0.0211996 0.999093 -0.0369281
vn 0.884834 0.292755 -0.362441
vn -0.00843697 0.013426 -0.999874
vn -0.0239799 -0.999128 0.0341764
vn 0.000498053 -0.999773 -0.021286
vn -0.00918949 -0.0670687 0.997706
vn 0.997012 0.0469327 -0.0613568
vn 0.884834 0.292755 -0.362441
vn 0.884834 0.292755 -0.362441
vn 0.884834 0.292755 -0.362441
vn 0.0986792 -0.992487 0.07233
vn 0.0986792 -0.992487 0.07233
vn 0.0986792 -0.992487 0.07233
vn -0.221503 -0.873812 -0.432886
vn 0.0986792 -0.992487 0.07233
vn 0.884834 0.292755 -0.362441
vn 0.0986792 -0.992487 0.07233
vn 0.273432 -0.956088 0.105503
vn -0.91295 0.393628 0.107607
f 4//2 5//2 2//2 1//2 
f 4//5 7//5 8//5 5//5 
f 5//6 9//6 6//6 2//6 
f 4//7 1//7 10//7 11//7 
f 1//8 6//8 9//8 12//8 
f 4//9 11//9 13//9 7//9 
f 7//10 14//10 15//10 8//10 
f 5//11 8//11 16//11 9//11 
f 1//12 17//12 18//12 10//12 
f 11//13 10//13 18//13 19//13 
f 9//14 16//14 20//14 12//14 
f 1//15 12//15 21//15 22//15 
f 11//16 19//16 23//16 13//16 
f 13//17 24//17 14//17 7//17 
f 14//18 25//18 26//18 15//18 
f 8//19 15//19 27//19 16//19 
f 1//20 28//20 29//20 17//20 
f 30//21 31//21 18//21 17//21 
f 31//22 32//22 19//22 18//22 
f 16//23 27//23 33//23 20//23 
f 12//24 20//24 34//24 21//24 
f 21//25 35//25 36//25 22//25 
f 32//27 38//27 23//27 19//27 
f 13//28 23//28 39//28 24//28 
f 24//29 40//29 25//29 14//29 
f 25//30 41//30 42//30 26//30 
f 27//31 15//31 26//31 43//31 
f 1//32 44//32 45//32 28//32 
f 29//33 28//33 46//33 47//33 
f 30//34 17//34 29//34 48//34 
f 30//35 49//35 50//35 31//35 
f 51//36 32//36 31//36 50//36 
f 27//37 43//37 52//37 33//37 
f 20//38 33//38 53//38 34//38 
f 21//39 34//39 54//39 35//39 
f 35//40 55//40 56//40 36//40 
f 22//41 36//41 57//41 44//41 
f 51//44 58//44 38//44 32//44 
f 23//45 38//45 59//45 39//45 
f 24//46 39//46 60//46 40//46 
f 40//47 61//47 41//47 25//47 
f 41//48 62//48 63//48 42//48 
f 26//49 42//49 64//49 43//49 
f 57//50 65//50 45//50 44//50 
f 28//51 45//51 66//51 46//51 
f 47//52 46//52 67//52 68//52 
f 48//53 29//53 47//53 69//53 
f 70//54 30//54 48//54 71//54 
f 70//55 72//55 49//55 30//55 
f 73//56 51//56 50//56 49//56 
f 43//57 64//57 74//57 52//57 
f 33//58 52//58 75//58 53//58 
f 34//59 53//59 76//59 54//59 
f 35//60 54//60 77//60 55//60 
f 78//61 79//61 56//61 55//61 
f 70//62 57//62 36//62 56//62 
f 73//63 80//63 58//63 51//63 
f 58//64 81//64 59//64 38//64 
f 39//65 59//65 82//65 60//65 
f 40//66 60//66 83//66 61//66 
f 41//67 61//67 84//67 62//67 
f 62//68 85//68 86//68 63//68 
f 42//69 63//69 87//69 64//69 
f 70//70 71//70 65//70 57//70 
f 65//71 88//71 66//71 45//71 
f 89//72 67//72 46//72 66//72 
f 68//73 67//73 90//73 91//73 
f 47//74 68//74 92//74 69//74 
f 48//75 69//75 93//75 71//75 
f 70//76 56//76 79//76 72//76 
f 49//77 72//77 94//77 95//77 
f 73//78 49//78 95//78 96//78 
f 64//79 87//79 97//79 74//79 
f 52//80 74//80 98//80 75//80 
f 75//81 99//81 76//81 53//81 
f 54//82 76//82 100//82 77//82 
f 78//83 55//83 77//83 101//83 
f 78//84 102//84 72//84 79//84 
f 73//85 96//85 103//85 80//85 
f 80//86 104//86 81//86 58//86 
f 105//87 82//87 59//87 81//87 
f 60//88 82//88 106//88 83//88 
f 83//89 107//89 84//89 61//89 
f 62//90 84//90 108//90 85//90 
f 85//91 109//91 110//91 86//91 
f 63//92 86//92 111//92 87//92 
f 71//93 93//93 88//93 65//93 
f 89//94 66//94 88//94 112//94 
f 89//95 113//95 90//95 67//95 
f 91//96 90//96 114//96 115//96 
f 68//97 91//97 116//97 92//97 
f 93//98 69//98 92//98 117//98 
f 94//99 72//99 102//99 118//99 
f 95//100 94//100 118//100 96//100 
f 87//101 111//101 119//101 97//101 
f 74//102 97//102 120//102 98//102 
f 75//103 98//103 121//103 99//103 
f 76//104 99//104 122//104 100//104 
f 101//105 77//105 100//105 123//105 
f 78//106 101//106 124//106 102//106 
f 118//107 125//107 103//107 96//107 
f 80//108 103//108 126//108 104//108 
f 104//109 127//109 105//109 81//109 
f 105//110 128//110 106//110 82//110 
f 83//111 106//111 129//111 107//111 
f 107//112 130//112 108//112 84//112 
f 85//113 108//113 131//113 109//113 
f 109//114 132//114 133//114 110//114 
f 86//115 110//115 134//115 111//115 
f 93//116 117//116 112//116 88//116 
f 89//117 112//117 135//117 113//117 
f 113//118 136//118 114//118 90//118 
f 115//119 114//119 137//119 138//119 
f 91//120 115//120 139//120 116//120 
f 117//121 92//121 116//121 140//121 
f 118//122 102//122 124//122 125//122 
f 111//123 134//123 141//123 119//123 
f 97//124 119//124 142//124 120//124 
f 121//125 98//125 120//125 143//125 
f 99//126 121//126 144//126 122//126 
f 100//127 122//127 145//127 123//127 
f 101//128 123//128 146//128 124//128 
f 125//129 147//129 126//129 103//129 
f 104//130 126//130 148//130 127//130 
f 127//131 149//131 128//131 105//131 
f 106//132 128//132 150//132 129//132 
f 107//133 129//133 151//133 130//133 
f 131//134 108//134 130//134 152//134 
f 131//135 153//135 132//135 109//135 
f 132//136 154//136 155//136 133//136 
f 110//137 133//137 156//137 134//137 
f 112//138 117//138 140//138 135//138 
f 135//139 157//139 136//139 113//139 
f 136//140 158//140 137//140 114//140 
f 159//141 160//141 138//141 137//141 
f 115//142 138//142 161//142 139//142 
f 162//143 140//143 116//143 139//143 
f 125//144 124//144 146//144 147//144 
f 134//145 156//145 163//145 141//145 
f 119//146 141//146 164//146 142//146 
f 143//147 120//147 142//147 165//147 
f 121//148 143//148 166//148 144//148 
f 122//149 144//149 167//149 145//149 
f 146//150 123//150 145//150 168//150 
f 147//151 169//151 148//151 126//151 
f 127//152 148//152 170//152 149//152 
f 149//153 171//153 150//153 128//153 
f 172//154 151//154 129//154 150//154 
f 130//155 151//155 173//155 152//155 
f 131//156 152//156 174//156 153//156 
f 132//157 153//157 175//157 154//157 
f 154//158 176//158 177//158 155//158 
f 133//159 155//159 178//159 156//159 
f 162//160 157//160 135//160 140//160 
f 157//161 179//161 158//161 136//161 
f 159//162 137//162 158//162 180//162 
f 159//163 181//163 182//163 160//163 
f 183//164 161//164 138//164 160//164 
f 162//165 139//165 161//165 184//165 
f 147//166 146//166 168//166 169//166 
f 156//167 178//167 185//167 163//167 
f 141//168 163//168 186//168 164//168 
f 165//169 142//169 164//169 187//169 
f 143//170 165//170 188//170 166//170 
f 144//171 166//171 189//171 167//171 
f 168//172 145//172 167//172 190//172 
f 169//173 191//173 170//173 148//173 
f 149//174 170//174 192//174 171//174 
f 171//175 193//175 172//175 150//175 
f 172//176 194//176 173//176 151//176 
f 152//177 173//177 195//177 174//177 
f 175//178 153//178 174//178 196//178 
f 175//179 197//179 176//179 154//179 
f 176//180 198//180 199//180 177//180 
f 155//181 177//181 200//181 178//181 
f 162//182 184//182 179//182 157//182 
f 179//183 201//183 180//183 158//183 
f 159//184 180//184 202//184 181//184 
f 181//185 203//185 204//185 182//185 
f 183//186 160//186 182//186 205//186 
f 183//187 206//187 184//187 161//187 
f 169//188 168//188 190//188 191//188 
f 178//189 200//189 207//189 185//189 
f 163//190 185//190 208//190 186//190 
f 187//191 164//191 186//191 209//191 
f 165//192 187//192 210//192 188//192 
f 211//193 189//193 166//193 188//193 
f 190//194 167//194 189//194 212//194 
f 170//195 191//195 213//195 192//195 
f 171//196 192//196 214//196 193//196 
f 193//197 215//197 194//197 172//197 
f 194//198 216//198 195//198 173//198 
f 174//199 195//199 217//199 196//199 
f 175//200 196//200 218//200 197//200 
f 176//201 197//201 219//201 198//201 
f 198//202 220//202 221//202 199//202 
f 177//203 199//203 222//203 200//203 
f 206//204 201//204 179//204 184//204 
f 201//205 223//205 202//205 180//205 
f 181//206 202//206 224//206 203//206 
f 225//207 226//207 204//207 203//207 
f 205//208 182//208 204//208 227//208 
f 183//209 205//209 228//209 206//209 
f 191//210 190//210 212//210 213//210 
f 200//211 222//211 229//211 207//211 
f 185//212 207//212 230//212 208//212 
f 209//213 186//213 208//213 231//213 
f 187//214 209//214 232//214 210//214 
f 211//215 188//215 210//215 233//215 
f 212//216 189//216 211//216 234//216 
f 213//217 235//217 214//217 192//217 
f 193//218 214//218 236//218 215//218 
f 215//219 237//219 216//219 194//219 
f 195//220 216//220 238//220 217//220 
f 196//221 217//221 239//221 218//221 
f 219//222 197//222 218//222 240//222 
f 219//223 241//223 220//223 198//223 
f 220//224 242//224 243//224 221//224 
f 199//225 221//225 244//225 222//225 
f 206//226 228//226 223//226 201//226 
f 224//227 202//227 223//227 245//227 
f 224//228 246//228 225//228 203//228 
f 225//229 247//229 248//229 226//229 
f 227//230 204//230 226//230 249//230 
f 205//231 227//231 250//231 228//231 
f 213//232 212//232 234//232 235//232 
f 222//233 244//233 251//233 229//233 
f 207//234 229//234 252//234 230//234 
f 230//235 253//235 231//235 208//235 
f 209//236 231//236 254//236 232//236 
f 255//237 233//237 210//237 232//237 
f 211//238 233//238 256//238 234//238 
f 235//239 257//239 236//239 214//239 
f 215//240 236//240 258//240 237//240 
f 237//241 259//241 238//241 216//241 
f 260//242 239//242 217//242 238//242 
f 218//243 239//243 261//243 240//243 
f 219//244 240//244 262//244 241//244 
f 241//245 263//245 242//245 220//245 
f 242//246 264//246 265//246 243//246 
f 221//247 243//247 266//247 244//247 
f 228//248 250//248 245//248 223//248 
f 224//249 245//249 267//249 246//249 
f 246//250 268//250 247//250 225//250 
f 269//251 270//251 248//251 247//251 
f 249//252 226//252 248//252 271//252 
f 227//253 249//253 272//253 250//253 
f 235//254 234//254 256//254 257//254 
f 244//255 266//255 273//255 251//255 
f 229//256 251//256 274//256 252//256 
f 230//257 252//257 275//257 253//257 
f 231//258 253//258 276//258 254//258 
f 255//259 232//259 254//259 277//259 
f 256//260 233//260 255//260 278//260 
f 257//261 279//261 258//261 236//261 
f 237//262 258//262 280//262 259//262 
f 259//263 281//263 260//263 238//263 
f 260//264 282//264 261//264 239//264 
f 240//265 261//265 283//265 262//265 
f 241//266 262//266 284//266 263//266 
f 242//267 263//267 285//267 264//267 
f 264//268 286//268 287//268 265//268 
f 243//269 265//269 288//269 266//269 
f 245//270 250//270 272//270 267//270 
f 246//271 267//271 289//271 268//271 
f 269//272 247//272 268//272 290//272 
f 269//273 291//273 292//273 270//273 
f 271//274 248//274 270//274 293//274 
f 249//275 271//275 294//275 272//275 
f 257//276 256//276 278//276 279//276 
f 266//277 288//277 295//277 273//277 
f 251//278 273//278 296//278 274//278 
f 274//279 297//279 275//279 252//279 
f 276//280 253//280 275//280 298//280 
f 299//281 277//281 254//281 276//281 
f 255//282 277//282 300//282 278//282 
f 279//283 301//283 280//283 258//283 
f 259//284 280//284 302//284 281//284 
f 281//285 303//285 282//285 260//285 
f 261//286 282//286 304//286 283//286 
f 262//287 283//287 305//287 284//287 
f 263//288 284//288 306//288 285//288 
f 264//289 285//289 307//289 286//289 
f 286//290 308//290 309//290 287//290 
f 287//291 310//291 288//291 265//291 
f 267//292 272//292 294//292 289//292 
f 289//293 311//293 290//293 268//293 
f 269//294 290//294 312//294 291//294 
f 313//295 292//295 291//295 314//295 
f 293//296 270//296 292//296 315//296 
f 271//297 293//297 316//297 294//297 
f 279//298 278//298 300//298 301//298 
f 295//299 288//299 310//299 317//299 
f 273//300 295//300 318//300 319//300 
f 274//302 296//302 321//302 297//302 
f 275//303 297//303 322//303 298//303 
f 299//304 276//304 298//304 323//304 
f 300//305 277//305 299//305 324//305 
f 301//306 325//306 302//306 280//306 
f 281//307 302//307 326//307 303//307 
f 303//308 327//308 304//308 282//308 
f 284//311 305//311 329//311 306//311 
f 307//312 285//312 306//312 330//312 
f 286//313 307//313 331//313 308//313 
f 309//314 308//314 332//314 333//314 
f 287//315 309//315 334//315 335//315 
f 287//316 335//316 336//316 310//316 
f 316//317 311//317 289//317 294//317 
f 312//318 290//318 311//318 337//318 
f 312//319 338//319 314//319 291//319 
f 313//320 339//320 315//320 292//320 
f 313//321 314//321 340//321 341//321 
f 293//322 315//322 342//322 316//322 
f 301//323 300//323 324//323 325//323 
f 310//324 343//324 344//324 317//324 
f 317//325 345//325 346//325 295//325 
f 295//326 346//326 347//326 318//326 
f 297//330 321//330 348//330 322//330 
f 323//331 298//331 322//331 349//331 
f 299//332 323//332 350//332 324//332 
f 302//333 325//333 351//333 326//333 
f 303//334 326//334 352//334 327//334 
f 353//337 354//337 329//337 305//337 
f 306//338 329//338 355//338 330//338 
f 307//339 330//339 356//339 331//339 
f 308//340 331//340 356//340 357//340 
f 358//341 332//341 308//341 357//341 
f 359//342 360//342 333//342 332//342 
f 309//343 333//343 360//343 343//343 
f 334//344 309//344 343//344 361//344 
f 335//345 334//345 361//345 336//345 
f 310//346 336//346 361//346 343//346 
f 316//347 342//347 337//347 311//347 
f 312//348 337//348 362//348 338//348 
f 314//349 338//349 363//349 340//349 
f 313//350 362//350 364//350 339//350 
f 315//351 339//351 364//351 342//351 
f 341//352 340//352 365//352 366//352 
f 313//353 341//353 367//353 362//353 
f 325//354 324//354 350//354 351//354 
f 359//355 344//355 343//355 360//355 
f 344//356 368//356 369//356 317//356 
f 317//357 369//357 370//357 345//357 
f 345//358 370//358 371//358 346//358 
f 318//360 347//360 371//360 321//360 
f 374//363 349//363 322//363 348//363 
f 374//364 350//364 323//364 349//364 
f 351//365 375//365 352//365 326//365 
f 353//366 327//366 352//366 376//366 
f 353//368 376//368 377//368 354//368 
f 378//369 355//369 329//369 354//369 
f 330//370 355//370 379//370 356//370 
f 356//371 379//371 380//371 357//371 
f 381//372 332//372 358//372 382//372 
f 358//373 357//373 380//373 383//373 
f 359//374 332//374 381//374 384//374 
f 337//375 342//375 364//375 362//375 
f 338//376 362//376 367//376 363//376 
f 385//377 365//377 340//377 363//377 
f 385//378 386//378 366//378 365//378 
f 341//379 366//379 386//379 367//379 
f 374//380 375//380 351//380 350//380 
f 359//381 387//381 368//381 344//381 
f 368//382 388//382 389//382 369//382 
f 370//383 369//383 389//383 390//383 
f 370//384 390//384 391//384 371//384 
f 374//389 348//389 392//389 393//389 
f 352//390 375//390 394//390 376//390 
f 394//391 395//391 377//391 376//391 
f 378//392 354//392 377//392 396//392 
f 378//393 396//393 397//393 355//393 
f 397//394 398//394 379//394 355//394 
f 379//395 398//395 399//395 380//395 
f 358//396 383//396 400//396 382//396 
f 401//397 384//397 381//397 382//397 
f 383//398 380//398 399//398 402//398 
f 401//399 387//399 359//399 384//399 
f 385//400 363//400 367//400 386//400 
f 368//402 387//402 404//402 388//402 
f 405//403 389//403 388//403 406//403 
f 405//404 407//404 390//404 389//404 
f 392//405 391//405 390//405 407//405 
f 405//408 393//408 392//408 407//408 
f 394//409 374//409 393//409 395//409 
f 395//411 408//411 409//411 377//411 
f 396//413 399//413 398//413 397//413 
f 412//415 382//415 400//415 413//415 
f 401//416 382//416 412//416 414//416 
f 415//417 416//417 402//417 399//417 
f 387//419 401//419 417//419 404//419 
f 388//421 404//421 418//421 406//421 
f 419//422 408//422 405//422 406//422 
f 395//423 393//423 405//423 408//423 
f 409//424 408//424 420//424 421//424 
f 396//427 409//427 415//427 399//427 
f 422//429 423//429 413//429 400//429 
f 412//430 413//430 424//430 414//430 
f 401//431 414//431 424//431 417//431 
f 419//432 425//432 416//432 415//432 
f 418//433 402//433 416//433 425//433 
f 427//435 418//435 404//435 417//435 
f 418//436 425//436 419//436 406//436 
f 428//437 420//437 408//437 419//437 
f 409//438 421//438 420//438 415//438 
f 427//440 429//440 423//440 422//440 
f 430//441 431//441 413//441 423//441 
f 431//442 430//442 424//442 413//442 
f 427//443 417//443 424//443 429//443 
f 420//444 428//444 419//444 415//444 
f 432//445 427//445 402//445 418//445 
f 427//446 422//446 426//446 402//446 
f 423//448 429//448 424//448 430//448 
f 434//452 437//452 438//452 435//452 
f 441//456 442//456 438//456 437//456 
f 438//457 443//457 444//457 435//457 
f 445//458 439//458 435//458 444//458 
f 447//461 448//461 442//461 441//461 
f 449//462 438//462 442//462 448//462 
f 441//463 437//463 450//463 451//463 
f 449//464 452//464 443//464 438//464 
f 453//465 454//465 444//465 443//465 
f 445//467 444//467 454//467 455//467 
f 437//468 446//468 456//468 450//468 
f 449//470 448//470 447//470 457//470 
f 447//471 441//471 451//471 458//471 
f 459//472 458//472 451//472 450//472 
f 460//473 461//473 452//473 449//473 
f 452//474 462//474 453//474 443//474 
f 453//475 463//475 464//475 454//475 
f 454//476 464//476 465//476 455//476 
f 445//477 455//477 466//477 467//477 
f 446//478 445//478 467//478 456//478 
f 456//479 467//479 468//479 450//479 
f 457//480 447//480 458//480 459//480 
f 449//481 457//481 459//481 469//481 
f 459//482 450//482 468//482 470//482 
f 471//483 461//483 460//483 472//483 
f 461//484 473//484 462//484 452//484 
f 472//485 460//485 449//485 469//485 
f 462//486 474//486 463//486 453//486 
f 463//487 475//487 476//487 464//487 
f 465//488 464//488 476//488 477//488 
f 478//489 466//489 455//489 465//489 
f 468//490 467//490 466//490 479//490 
f 480//491 481//491 469//491 459//491 
f 470//492 468//492 479//492 482//492 
f 480//493 459//493 470//493 483//493 
f 461//494 471//494 484//494 473//494 
f 469//495 481//495 471//495 472//495 
f 473//496 485//496 474//496 462//496 
f 486//497 475//497 463//497 474//497 
f 478//500 465//500 477//500 489//500 
f 479//501 466//501 478//501 490//501 
f 480//502 483//502 471//502 481//502 
f 491//503 482//503 479//503 490//503 
f 483//504 470//504 482//504 492//504 
f 483//505 492//505 484//505 471//505 
f 473//506 484//506 493//506 485//506 
f 485//507 494//507 486//507 474//507 
f 486//508 495//508 496//508 475//508 
f 489//513 477//513 498//513 499//513 
f 500//514 490//514 478//514 489//514 
f 491//515 501//515 492//515 482//515 
f 502//516 503//516 491//516 490//516 
f 501//517 493//517 484//517 492//517 
f 485//518 493//518 504//518 494//518 
f 494//519 505//519 495//519 486//519 
f 508//525 509//525 499//525 498//525 
f 500//526 489//526 499//526 510//526 
f 502//527 490//527 500//527 511//527 
f 491//528 512//528 513//528 501//528 
f 514//529 503//529 502//529 515//529 
f 503//530 516//530 512//530 491//530 
f 501//531 513//531 504//531 493//531 
f 494//532 504//532 517//532 505//532 
f 520//535 507//535 496//535 519//535 
f 521//536 508//536 497//536 507//536 
f 521//537 522//537 509//537 508//537 
f 522//538 510//538 499//538 509//538 
f 512//539 500//539 510//539 523//539 
f 511//540 500//540 512//540 516//540 
f 515//541 502//541 511//541 524//541 
f 512//542 523//542 525//542 513//542 
f 514//543 526//543 516//543 503//543 
f 527//544 514//544 515//544 528//544 
f 513//545 525//545 517//545 504//545 
f 518//546 495//546 529//546 530//546 
f 521//549 507//549 520//549 532//549 
f 533//550 532//550 520//550 519//550 
f 521//551 532//551 534//551 522//551 
f 535//552 510//552 522//552 534//552 
f 524//554 511//554 516//554 526//554 
f 528//555 515//555 524//555 537//555 
f 527//556 538//556 526//556 514//556 
f 531//558 518//558 530//558 540//558 
f 531//559 541//559 542//559 519//559 
f 533//560 535//560 534//560 532//560 
f 533//561 519//561 542//561 543//561 
f 537//564 524//564 526//564 538//564 
f 545//566 538//566 527//566 546//566 
f 547//568 540//568 530//568 544//568 
f 531//569 540//569 548//569 541//569 
f 543//570 542//570 541//570 548//570 
f 533//571 543//571 549//571 535//571 
f 545//574 550//574 537//574 538//574 
f 545//576 546//576 551//576 552//576 
f 547//578 553//578 548//578 540//578 
f 543//579 548//579 553//579 549//579 
f 547//580 535//580 549//580 553//580 
f 555//582 551//582 546//582 556//582 
f 555//583 557//583 552//583 551//583 
f 558//585 546//585 550//585 559//585 
f 558//587 561//587 556//587 546//587 
f 562//588 563//588 555//588 556//588 
f 564//589 565//589 557//589 555//589 
f 550//591 560//591 566//591 559//591 
f 558//592 559//592 566//592 561//592 
f 562//594 556//594 561//594 567//594 
f 568//595 563//595 562//595 569//595 
f 564//596 555//596 563//596 568//596 
f 570//597 571//597 565//597 564//597 
f 565//598 572//598 573//598 557//598 
f 574//599 575//599 566//599 560//599 
f 576//600 561//600 566//600 577//600 
f 574//601 560//601 557//601 573//601 
f 576//602 578//602 567//602 561//602 
f 562//603 567//603 578//603 569//603 
f 564//604 568//604 569//604 579//604 
f 570//605 580//605 581//605 571//605 
f 565//606 571//606 581//606 582//606 
f 570//607 564//607 579//607 580//607 
f 565//608 582//608 583//608 572//608 
f 574//609 573//609 572//609 583//609 
f 574//610 583//610 584//610 575//610 
f 577//611 566//611 575//611 584//611 
f 576//612 577//612 585//612 586//612 
f 579//613 569//613 578//613 576//613 
f 580//614 586//614 585//614 581//614 
f 581//615 585//615 577//615 582//615 
f 579//616 576//616 586//616 580//616 
f 582//617 577//617 584//617 583//617 
f 587//625 594//625 595//625 592//625 
f 587//628 597//628 598//628 594//628 
f 594//629 599//629 600//629 595//629 
f 592//630 595//630 601//630 596//630 
f 587//631 596//631 601//631 602//631 
f 604//633 605//633 598//633 597//633 
f 594//634 598//634 606//634 599//634 
f 600//635 599//635 607//635 608//635 
f 595//636 600//636 609//636 601//636 
f 601//637 609//637 610//637 602//637 
f 587//638 602//638 605//638 604//638 
f 605//641 611//641 606//641 598//641 
f 607//642 599//642 606//642 612//642 
f 607//643 613//643 614//643 608//643 
f 600//644 608//644 615//644 609//644 
f 610//645 609//645 615//645 616//645 
f 602//646 610//646 611//646 605//646 
f 612//647 606//647 611//647 617//647 
f 607//648 612//648 618//648 613//648 
f 620//650 615//650 608//650 614//650 
f 620//651 621//651 616//651 615//651 
f 610//652 616//652 617//652 611//652 
f 612//653 617//653 622//653 618//653 
f 623//654 613//654 618//654 622//654 
f 623//661 626//661 624//661 613//661 
f 621//665 624//665 626//665 623//665 
f 523//666 627//666 517//666 627//666 
f 1//4 2//4 6//4 
f 1//43 22//43 44//43 
f 273//361 319//361 318//361 321//361 296//361 
f 283//367 304//367 327//367 353//367 305//367 
f 346//386 371//386 347//386 
f 321//407 371//407 391//407 392//407 348//407 
f 374//420 394//420 375//420 
f 377//426 409//426 396//426 
f 383//439 402//439 426//439 422//439 400//439 
f 418//450 427//450 432//450 
f 434//454 435//454 439//454 
f 434//469 439//469 445//469 446//469 437//469 
f 475//522 496//522 507//522 497//522 476//522 
f 476//524 497//524 508//524 498//524 477//524 
f 495//548 518//548 531//548 519//548 496//548 
f 510//573 535//573 547//573 544//573 523//573 
f 527//577 528//577 537//577 550//577 546//577 
f 545//593 552//593 557//593 560//593 550//593 
f 587//621 588//621 591//621 
f 587//623 591//623 588//623 
f 587//627 592//627 596//627 
f 587//640 604//640 597//640 
f 613//663 624//663 621//663 620//663 614//663 
f 616//664 621//664 623//664 622//664 617//664 
